<?xml version="1.0" encoding="UTF-8"?>
<svg xmlns="http://www.w3.org/2000/svg" baseProfile="tiny" version="1.2" viewBox="0 0 650 650">
  <!-- Generator: Adobe Illustrator 28.6.0, SVG Export Plug-In . SVG Version: 1.2.0 Build 709)  -->
  <g>
    <g id="g-peanut-butter-map-Artboard_1-Interaction3-img">
      <g id="best">
        <path id="best-2" data-name="best" d="M293.046,168.56c.656-2.062,1.658-3.627,3.006-4.693s2.982-1.6,4.904-1.6c2.273,0,4.102.694,5.484,2.083s2.074,3.226,2.074,5.511c0,2.004-.48,3.615-1.441,4.834s-2.807,2.402-5.537,3.551l-.352.158c-4.477,1.887-7.189,3.996-8.139,6.328-.973-2.344-3.68-4.453-8.121-6.328-.164-.07-.293-.123-.387-.158-2.742-1.148-4.591-2.326-5.546-3.533s-1.433-2.824-1.433-4.852c0-2.285.694-4.122,2.083-5.511s3.214-2.083,5.476-2.083c1.934,0,3.571.533,4.913,1.6s2.347,2.631,3.015,4.693Z" fill="#ed1c24"/>
        <rect id="best-3" data-name="best" x="314.067" y="162.843" width="208.05" height="20.574" fill="#fff"/>
        <g id="best-4" data-name="best">
          <path d="M321.892,170.013h-3.422v2.701h3.117v.838h-3.117v3.891h-.961v-8.268h4.383v.838Z"/>
          <path d="M326.808,171.191c.84,0,1.508.293,2.004.879s.744,1.357.744,2.314c0,.965-.248,1.742-.744,2.332s-1.164.885-2.004.885-1.513-.294-2.007-.882-.741-1.366-.741-2.335c0-.961.248-1.733.744-2.317s1.164-.876,2.004-.876ZM326.808,176.804c.555,0,.992-.234,1.312-.703s.48-1.037.48-1.705c0-.703-.158-1.281-.475-1.734s-.756-.68-1.318-.68c-.566,0-1.006.224-1.318.671s-.469,1.028-.469,1.743c0,.68.158,1.251.475,1.714s.754.694,1.312.694Z"/>
          <path d="M334.009,171.191c.84,0,1.508.293,2.004.879s.744,1.357.744,2.314c0,.965-.248,1.742-.744,2.332s-1.164.885-2.004.885-1.513-.294-2.007-.882-.741-1.366-.741-2.335c0-.961.248-1.733.744-2.317s1.164-.876,2.004-.876ZM334.009,176.804c.555,0,.992-.234,1.312-.703s.48-1.037.48-1.705c0-.703-.158-1.281-.475-1.734s-.756-.68-1.318-.68c-.566,0-1.006.224-1.318.671s-.469,1.028-.469,1.743c0,.68.158,1.251.475,1.714s.754.694,1.312.694Z"/>
          <path d="M343.554,177.443h-.914v-.879c-.188.301-.456.549-.806.744s-.718.293-1.104.293c-.699,0-1.252-.312-1.658-.935s-.609-1.413-.609-2.37c0-.895.212-1.636.636-2.224s.985-.882,1.685-.882c.77,0,1.389.312,1.857.938v-2.953h.914v8.268ZM342.64,175.574v-2.537c-.438-.703-.965-1.055-1.582-1.055-.504,0-.902.224-1.195.671s-.439,1.013-.439,1.696c0,.703.138,1.284.413,1.743s.653.688,1.134.688c.23,0,.463-.062.697-.188s.455-.312.662-.562.311-.402.311-.457Z"/>
          <path d="M350.837,177.167c-.613.281-1.217.422-1.811.422-1.09,0-1.635-.576-1.635-1.729v-3.732h-1.172v-.791h1.172v-1.67h.891v1.67h2.074v.791h-2.074v3.492c0,.371.082.659.246.864s.387.308.668.308c.5,0,.994-.111,1.482-.334l.158.709Z"/>
          <path d="M355.612,171.191c.84,0,1.508.293,2.004.879s.744,1.357.744,2.314c0,.965-.248,1.742-.744,2.332s-1.164.885-2.004.885-1.513-.294-2.007-.882-.741-1.366-.741-2.335c0-.961.248-1.733.744-2.317s1.164-.876,2.004-.876ZM355.612,176.804c.555,0,.992-.234,1.312-.703s.48-1.037.48-1.705c0-.703-.158-1.281-.475-1.734s-.756-.68-1.318-.68c-.566,0-1.006.224-1.318.671s-.469,1.028-.469,1.743c0,.68.158,1.251.475,1.714s.754.694,1.312.694Z"/>
          <path d="M365.901,171.337l-.879,6.105h-.697l-1.436-3.457-1.441,3.457h-.697l-.861-6.105h.908c.324,2.852.492,4.348.504,4.488l1.119-2.654h.938l1.113,2.637.492-4.471h.938Z"/>
          <path d="M372.382,177.443h-.914v-3.914c0-.543-.087-.937-.261-1.181s-.446-.366-.817-.366c-.559,0-1.158.348-1.799,1.043v4.418h-.914v-6.105h.914v.896c.656-.695,1.348-1.043,2.074-1.043,1.145,0,1.717.691,1.717,2.074v4.178Z"/>
          <path d="M384.417,171.191c.84,0,1.508.293,2.004.879s.744,1.357.744,2.314c0,.965-.248,1.742-.744,2.332s-1.164.885-2.004.885-1.513-.294-2.007-.882-.741-1.366-.741-2.335c0-.961.248-1.733.744-2.317s1.164-.876,2.004-.876ZM384.417,176.804c.555,0,.992-.234,1.312-.703s.48-1.037.48-1.705c0-.703-.158-1.281-.475-1.734s-.756-.68-1.318-.68c-.566,0-1.006.224-1.318.671s-.469,1.028-.469,1.743c0,.68.158,1.251.475,1.714s.754.694,1.312.694Z"/>
          <path d="M394.044,169.269l-.24.744c-.434-.125-.822-.188-1.166-.188-.328,0-.554.093-.677.278s-.185.56-.185,1.122v.111h2.051v.791h-2.051v5.314h-.914v-5.314h-1.535v-.791h1.535v-.205c0-.777.133-1.322.398-1.635s.725-.469,1.377-.469c.422,0,.891.08,1.406.24Z"/>
          <path d="M403.923,169.175h2.098c.793,0,1.428.199,1.904.598s.715.947.715,1.646c0,.703-.237,1.265-.712,1.685s-1.097.63-1.866.63h-1.178v3.709h-.961v-8.268ZM404.884,172.896h1.043c1.129,0,1.693-.473,1.693-1.418,0-.438-.153-.791-.46-1.061s-.702-.404-1.187-.404h-1.09v2.883Z"/>
          <path d="M415.683,171.501l-.369.879c-.402-.176-.75-.264-1.043-.264-.27,0-.533.077-.791.231s-.495.375-.712.662-.325.448-.325.483v3.949h-.908v-6.105h.908v1.236c.488-.922,1.121-1.383,1.898-1.383.461,0,.908.104,1.342.311Z"/>
          <path d="M420.423,171.191c.84,0,1.508.293,2.004.879s.744,1.357.744,2.314c0,.965-.248,1.742-.744,2.332s-1.164.885-2.004.885-1.513-.294-2.007-.882-.741-1.366-.741-2.335c0-.961.248-1.733.744-2.317s1.164-.876,2.004-.876ZM420.423,176.804c.555,0,.992-.234,1.312-.703s.48-1.037.48-1.705c0-.703-.158-1.281-.475-1.734s-.756-.68-1.318-.68c-.566,0-1.006.224-1.318.671s-.469,1.028-.469,1.743c0,.68.158,1.251.475,1.714s.754.694,1.312.694Z"/>
          <path d="M429.353,172.21c-.512-.168-.994-.252-1.447-.252-.496,0-.889.083-1.178.249s-.434.388-.434.665c0,.176.066.329.199.46s.398.253.797.366l.873.252c.402.113.73.249.984.407s.444.35.571.574.19.485.19.782c0,.582-.244,1.042-.732,1.38s-1.109.507-1.863.507c-.75,0-1.369-.113-1.857-.34l.176-.791c.512.242,1.061.363,1.646.363.508,0,.921-.095,1.239-.284s.478-.44.478-.753c0-.211-.079-.399-.237-.565s-.53-.339-1.116-.519c-.473-.145-.82-.253-1.043-.325s-.43-.179-.621-.319-.337-.309-.437-.504-.149-.414-.149-.656c0-.527.23-.945.691-1.254s1.072-.463,1.834-.463c.492,0,1.039.084,1.641.252l-.205.768Z"/>
          <path d="M433.401,172.128c.203-.281.478-.508.823-.68s.71-.258,1.093-.258c.703,0,1.255.29,1.655.87s.601,1.335.601,2.265c0,.938-.21,1.718-.63,2.341s-.985.935-1.696.935c-.379,0-.733-.095-1.063-.284s-.591-.44-.782-.753v3.293h-.914v-8.52h.914v.791ZM433.401,173.037v2.537c.172.344.404.631.697.861s.596.346.908.346c.492,0,.884-.23,1.175-.691s.437-1.033.437-1.717c0-.703-.139-1.277-.416-1.723s-.664-.668-1.16-.668c-.645,0-1.191.352-1.641,1.055Z"/>
          <path d="M444.575,174.419h-4.189c0,.691.2,1.262.601,1.711s.892.674,1.474.674c.555,0,1.127-.1,1.717-.299l.158.732c-.539.242-1.168.363-1.887.363-.906,0-1.637-.291-2.191-.873s-.832-1.367-.832-2.355c0-.969.249-1.741.747-2.317s1.142-.864,1.931-.864c.703,0,1.291.268,1.764.803s.709,1.248.709,2.139v.287ZM443.579,173.675c0-.477-.148-.878-.445-1.204s-.629-.489-.996-.489c-.473,0-.864.156-1.175.469s-.483.721-.519,1.225h3.135Z"/>
          <path d="M451.571,177.238c-.531.242-1.115.363-1.752.363-.961,0-1.728-.292-2.3-.876s-.858-1.36-.858-2.329.288-1.745.864-2.329,1.333-.876,2.271-.876c.613,0,1.197.107,1.752.322l-.24.756c-.555-.191-1.055-.287-1.5-.287-.672,0-1.204.217-1.597.65s-.589,1.021-.589,1.764c0,.68.203,1.251.609,1.714s.936.694,1.588.694c.516,0,1.047-.1,1.594-.299l.158.732Z"/>
          <path d="M458.854,177.167c-.613.281-1.217.422-1.811.422-1.09,0-1.635-.576-1.635-1.729v-3.732h-1.172v-.791h1.172v-1.67h.891v1.67h2.074v.791h-2.074v3.492c0,.371.082.659.246.864s.387.308.668.308c.5,0,.994-.111,1.482-.334l.158.709Z"/>
          <path d="M473.21,177.443h-.961v-4.102h-2.83v4.102h-.961v-8.268h.961v3.322h2.83v-3.322h.961v8.268Z"/>
          <path d="M480.581,174.419h-4.189c0,.691.2,1.262.601,1.711s.892.674,1.474.674c.555,0,1.127-.1,1.717-.299l.158.732c-.539.242-1.168.363-1.887.363-.906,0-1.637-.291-2.191-.873s-.832-1.367-.832-2.355c0-.969.249-1.741.747-2.317s1.142-.864,1.931-.864c.703,0,1.291.268,1.764.803s.709,1.248.709,2.139v.287ZM479.585,173.675c0-.477-.148-.878-.445-1.204s-.629-.489-.996-.489c-.473,0-.864.156-1.175.469s-.483.721-.519,1.225h3.135Z"/>
          <path d="M486.077,177.443h-.914v-5.314h-1.799v-.791h2.713v6.105ZM485.632,169.029c.172,0,.318.062.439.185s.182.271.182.442c0,.18-.06.33-.179.451s-.267.182-.442.182c-.16,0-.302-.063-.425-.19s-.185-.274-.185-.442.062-.314.185-.439.265-.188.425-.188Z"/>
          <path d="M491.79,175.14c-.57.277-.855.521-.855.732,0,.113.065.209.196.287s.31.117.536.117l2.057-.059c.488,0,.868.119,1.14.357s.407.576.407,1.014c0,.691-.309,1.242-.926,1.652s-1.338.615-2.162.615c-.676,0-1.229-.142-1.658-.425s-.645-.649-.645-1.099c0-.488.332-.9.996-1.236-.551-.258-.826-.574-.826-.949,0-.43.355-.83,1.066-1.201-.328-.199-.58-.457-.756-.773s-.264-.65-.264-1.002c0-.574.195-1.046.586-1.415s.879-.554,1.465-.554c.422,0,.803.088,1.143.264l1.811-.275v.891h-1.166c.176.309.264.672.264,1.09,0,.555-.193,1.023-.58,1.406s-.877.574-1.471.574c-.125,0-.244-.004-.357-.012ZM492.183,179.148c.602,0,1.114-.134,1.538-.401s.636-.599.636-.993c0-.406-.301-.609-.902-.609-.199,0-.543.012-1.031.035-.309.016-.551.023-.727.023-.086,0-.22.07-.401.211s-.32.282-.416.425-.144.29-.144.442c0,.238.133.442.398.612s.615.255,1.049.255ZM492.147,174.443c.336,0,.61-.116.823-.349s.319-.536.319-.911c0-.395-.104-.703-.311-.926s-.484-.334-.832-.334c-.324,0-.597.116-.817.349s-.331.536-.331.911c0,.367.11.669.331.905s.493.354.817.354Z"/>
          <path d="M502.003,177.443h-.914v-3.914c0-.543-.087-.937-.261-1.181s-.446-.366-.817-.366c-.559,0-1.158.348-1.799,1.043v4.418h-.914v-8.268h.914v3.059c.656-.695,1.348-1.043,2.074-1.043,1.145,0,1.717.691,1.717,2.074v4.178Z"/>
          <path d="M509.263,177.167c-.613.281-1.217.422-1.811.422-1.09,0-1.635-.576-1.635-1.729v-3.732h-1.172v-.791h1.172v-1.67h.891v1.67h2.074v.791h-2.074v3.492c0,.371.082.659.246.864s.387.308.668.308c.5,0,.994-.111,1.482-.334l.158.709Z"/>
          <path d="M515.767,172.21c-.512-.168-.994-.252-1.447-.252-.496,0-.889.083-1.178.249s-.434.388-.434.665c0,.176.066.329.199.46s.398.253.797.366l.873.252c.402.113.73.249.984.407s.444.35.571.574.19.485.19.782c0,.582-.244,1.042-.732,1.38s-1.109.507-1.863.507c-.75,0-1.369-.113-1.857-.34l.176-.791c.512.242,1.061.363,1.646.363.508,0,.921-.095,1.239-.284s.478-.44.478-.753c0-.211-.079-.399-.237-.565s-.53-.339-1.116-.519c-.473-.145-.82-.253-1.043-.325s-.43-.179-.621-.319-.337-.309-.437-.504-.149-.414-.149-.656c0-.527.23-.945.691-1.254s1.072-.463,1.834-.463c.492,0,1.039.084,1.641.252l-.205.768Z"/>
        </g>
      </g>
    </g>
  </g>
<style>
#g-peanut-butter-map-Artboard_1-Interaction3-img rect, #g-peanut-butter-map-Artboard_1-Interaction3-img circle, #g-peanut-butter-map-Artboard_1-Interaction3-img path, #g-peanut-butter-map-Artboard_1-Interaction3-img line, #g-peanut-butter-map-Artboard_1-Interaction3-img polyline, #g-peanut-butter-map-Artboard_1-Interaction3-img polygon { vector-effect: non-scaling-stroke; }
</style>
</svg>
