<?xml version="1.0" encoding="UTF-8"?>
<svg xmlns="http://www.w3.org/2000/svg" baseProfile="tiny" version="1.2" viewBox="0 0 650 650">
  <!-- Generator: Adobe Illustrator 28.6.0, SVG Export Plug-In . SVG Version: 1.2.0 Build 709)  -->
  <g>
    <g id="g-peanut-butter-map-Artboard_1-Interaction2-img">
      <g id="nice">
        <g id="nice-2" data-name="nice">
          <rect x="392.822" y="332.866" width="143.754" height="20.574" fill="#fff"/>
          <g>
            <path d="M401.51,340.075h-3.422v2.701h3.117v.838h-3.117v3.891h-.961v-8.268h4.383v.838Z"/>
            <path d="M408.887,341.563l-.369.879c-.402-.176-.75-.264-1.043-.264-.27,0-.533.077-.791.231s-.495.375-.712.662-.325.448-.325.483v3.949h-.908v-6.105h.908v1.236c.488-.922,1.121-1.383,1.898-1.383.461,0,.908.104,1.342.311Z"/>
            <path d="M416.146,347.505h-.908c-.074-.246-.111-.574-.111-.984-.52.762-1.227,1.143-2.121,1.143-.453,0-.853-.161-1.198-.483s-.519-.737-.519-1.245c0-.301.061-.566.182-.797s.299-.425.533-.583.52-.283.855-.375.734-.155,1.195-.19l1.025-.082v-.293c0-1.047-.488-1.57-1.465-1.57-.23,0-.522.05-.876.149s-.657.218-.911.354l-.24-.656c.832-.426,1.605-.639,2.32-.639,1.391,0,2.086.736,2.086,2.209v2.625c0,.531.051,1.004.152,1.418ZM415.08,345.694v-1.107c-.824.074-1.39.144-1.696.208s-.572.185-.797.36-.337.414-.337.715c0,.273.096.494.287.662s.436.252.732.252c.324,0,.646-.097.967-.29.32-.193.602-.46.844-.8Z"/>
            <path d="M423.195,347.505h-.914v-3.914c0-.543-.087-.937-.261-1.181s-.446-.366-.817-.366c-.559,0-1.158.348-1.799,1.043v4.418h-.914v-6.105h.914v.896c.656-.695,1.348-1.043,2.074-1.043,1.145,0,1.717.691,1.717,2.074v4.178Z"/>
            <path d="M430.994,347.505h-1.201l-2.59-3.035-.598.516v2.52h-.914v-8.268h.914v4.74l2.865-2.578h1.166l-2.783,2.496,3.141,3.609Z"/>
            <path d="M435.148,340.532c-.207-.023-.377-.106-.51-.249s-.199-.308-.199-.495c0-.199.065-.367.196-.504s.294-.205.489-.205c.219,0,.407.089.565.267s.237.394.237.647c0,.762-.424,1.357-1.271,1.787l-.229-.422c.48-.234.721-.51.721-.826Z"/>
            <path d="M444.16,342.272c-.512-.168-.994-.252-1.447-.252-.496,0-.889.083-1.178.249s-.434.388-.434.665c0,.176.066.329.199.46s.398.253.797.366l.873.252c.402.113.73.249.984.407s.444.35.571.574.19.485.19.782c0,.582-.244,1.042-.732,1.38s-1.109.507-1.863.507c-.75,0-1.369-.113-1.857-.34l.176-.791c.512.242,1.061.363,1.646.363.508,0,.921-.095,1.239-.284s.478-.44.478-.753c0-.211-.079-.399-.237-.565s-.53-.339-1.116-.519c-.473-.145-.82-.253-1.043-.325s-.43-.179-.621-.319-.337-.309-.437-.504-.149-.414-.149-.656c0-.527.23-.945.691-1.254s1.072-.463,1.834-.463c.492,0,1.039.084,1.641.252l-.205.768Z"/>
            <path d="M459.119,340.075h-3.422v2.701h3.117v.838h-3.117v3.891h-.961v-8.268h4.383v.838Z"/>
            <path d="M464.879,347.505h-.914v-5.314h-1.799v-.791h2.713v6.105ZM464.434,339.091c.172,0,.318.062.439.185s.182.271.182.442c0,.18-.06.33-.179.451s-.267.182-.442.182c-.16,0-.302-.063-.425-.19s-.185-.274-.185-.442.062-.314.185-.439.265-.188.425-.188Z"/>
            <path d="M473.604,347.505h-.914v-3.914c0-.543-.087-.937-.261-1.181s-.446-.366-.817-.366c-.559,0-1.158.348-1.799,1.043v4.418h-.914v-6.105h.914v.896c.656-.695,1.348-1.043,2.074-1.043,1.145,0,1.717.691,1.717,2.074v4.178Z"/>
            <path d="M480.986,344.481h-4.189c0,.691.2,1.262.601,1.711s.892.674,1.474.674c.555,0,1.127-.1,1.717-.299l.158.732c-.539.242-1.168.363-1.887.363-.906,0-1.637-.291-2.191-.873s-.832-1.367-.832-2.355c0-.969.249-1.741.747-2.317s1.142-.864,1.931-.864c.703,0,1.291.268,1.764.803s.709,1.248.709,2.139v.287ZM479.99,343.737c0-.477-.148-.878-.445-1.204s-.629-.489-.996-.489c-.473,0-.864.156-1.175.469s-.483.721-.519,1.225h3.135Z"/>
            <path d="M487.367,342.272c-.512-.168-.994-.252-1.447-.252-.496,0-.889.083-1.178.249s-.434.388-.434.665c0,.176.066.329.199.46s.398.253.797.366l.873.252c.402.113.73.249.984.407s.444.35.571.574.19.485.19.782c0,.582-.244,1.042-.732,1.38s-1.109.507-1.863.507c-.75,0-1.369-.113-1.857-.34l.176-.791c.512.242,1.061.363,1.646.363.508,0,.921-.095,1.239-.284s.478-.44.478-.753c0-.211-.079-.399-.237-.565s-.53-.339-1.116-.519c-.473-.145-.82-.253-1.043-.325s-.43-.179-.621-.319-.337-.309-.437-.504-.149-.414-.149-.656c0-.527.23-.945.691-1.254s1.072-.463,1.834-.463c.492,0,1.039.084,1.641.252l-.205.768Z"/>
            <path d="M495.266,347.229c-.613.281-1.217.422-1.811.422-1.09,0-1.635-.576-1.635-1.729v-3.732h-1.172v-.791h1.172v-1.67h.891v1.67h2.074v.791h-2.074v3.492c0,.371.082.659.246.864s.387.308.668.308c.5,0,.994-.111,1.482-.334l.158.709Z"/>
            <path d="M504.869,339.237h1.629c1.082,0,1.949.368,2.602,1.104s.979,1.747.979,3.032c0,1.312-.331,2.329-.993,3.05s-1.511,1.081-2.546,1.081h-1.67v-8.268ZM505.83,346.667h.68c.785,0,1.406-.291,1.863-.873s.686-1.389.686-2.42c0-1.023-.229-1.829-.688-2.417s-1.079-.882-1.86-.882h-.68v6.592Z"/>
            <path d="M516.992,344.481h-4.189c0,.691.2,1.262.601,1.711s.892.674,1.474.674c.555,0,1.127-.1,1.717-.299l.158.732c-.539.242-1.168.363-1.887.363-.906,0-1.637-.291-2.191-.873s-.832-1.367-.832-2.355c0-.969.249-1.741.747-2.317s1.142-.864,1.931-.864c.703,0,1.291.268,1.764.803s.709,1.248.709,2.139v.287ZM515.996,343.737c0-.477-.148-.878-.445-1.204s-.629-.489-.996-.489c-.473,0-.864.156-1.175.469s-.483.721-.519,1.225h3.135Z"/>
            <path d="M523.566,347.505h-2.496v-7.477h-1.594v-.791h2.508v7.477h1.582v.791Z"/>
            <path d="M529.689,347.505h-.914v-5.314h-1.799v-.791h2.713v6.105ZM529.244,339.091c.172,0,.318.062.439.185.121.123.182.271.182.442,0,.18-.06.33-.179.451s-.267.182-.442.182c-.16,0-.302-.063-.425-.19s-.185-.274-.185-.442.062-.314.185-.439.265-.188.425-.188Z"/>
          </g>
        </g>
        <g id="nice-3" data-name="nice">
          <path d="M549.937,340.337c.438-1.375,1.105-2.418,2.004-3.129s1.988-1.066,3.27-1.066c1.516,0,2.734.463,3.656,1.389s1.383,2.15,1.383,3.674c0,1.336-.32,2.41-.961,3.223s-1.871,1.602-3.691,2.367l-.234.105c-2.984,1.258-4.793,2.664-5.426,4.219-.648-1.562-2.453-2.969-5.414-4.219-.109-.047-.195-.082-.258-.105-1.828-.766-3.061-1.551-3.697-2.355s-.955-1.883-.955-3.234c0-1.523.463-2.748,1.389-3.674s2.143-1.389,3.65-1.389c1.289,0,2.381.355,3.275,1.066s1.564,1.754,2.01,3.129Z" fill="#ed1c24"/>
        </g>
        <g id="nice-4" data-name="nice">
          <g>
            <rect x="388.302" y="262.335" width="97.943" height="20.574" fill="#fff"/>
            <g>
              <path d="M398.042,275.687c-.676.496-1.424.744-2.244.744-1.074,0-1.889-.364-2.443-1.093s-.832-1.794-.832-3.196c0-1.355.269-2.41.806-3.164s1.36-1.131,2.47-1.131c.398,0,.793.051,1.184.152s.705.236.943.404l-.316.756c-.551-.312-1.154-.469-1.811-.469-.758,0-1.323.277-1.696.832s-.56,1.428-.56,2.619c0,2.297.752,3.445,2.256,3.445.566,0,.994-.119,1.283-.357v-2.039h-1.488v-.832h2.449v3.328Z"/>
              <path d="M402.577,270.021c.84,0,1.508.293,2.004.879s.744,1.357.744,2.314c0,.965-.248,1.742-.744,2.332s-1.164.885-2.004.885-1.513-.294-2.007-.882-.741-1.366-.741-2.335c0-.961.248-1.733.744-2.317s1.164-.876,2.004-.876ZM402.577,275.634c.555,0,.992-.234,1.312-.703s.48-1.037.48-1.705c0-.703-.158-1.281-.475-1.734s-.756-.68-1.318-.68c-.566,0-1.006.224-1.318.671s-.469,1.028-.469,1.743c0,.68.158,1.251.475,1.714s.754.694,1.312.694Z"/>
              <path d="M412.134,276.273h-.914v-.902c-.656.699-1.348,1.049-2.074,1.049-1.145,0-1.717-.693-1.717-2.08v-4.172h.914v3.908c0,.52.082.907.246,1.163s.441.384.832.384c.559,0,1.158-.348,1.799-1.043v-4.412h.914v6.105Z"/>
              <path d="M419.44,270.332l-.369.879c-.402-.176-.75-.264-1.043-.264-.27,0-.533.077-.791.231s-.495.375-.712.662-.325.448-.325.483v3.949h-.908v-6.105h.908v1.236c.488-.922,1.121-1.383,1.898-1.383.461,0,.908.104,1.342.311Z"/>
              <path d="M427.028,276.273h-.914v-4.008c0-.969-.18-1.453-.539-1.453-.184,0-.386.167-.606.501s-.331.519-.331.554v4.406h-.908v-4.008c0-.969-.182-1.453-.545-1.453-.18,0-.38.167-.601.501s-.331.519-.331.554v4.406h-.914v-6.105h.879v.92c.172-.324.376-.583.612-.776s.472-.29.706-.29c.246,0,.467.097.662.29s.33.452.404.776c.172-.324.377-.583.615-.776s.473-.29.703-.29c.738,0,1.107.66,1.107,1.98v4.271Z"/>
              <path d="M433.931,273.249h-4.189c0,.691.2,1.262.601,1.711s.892.674,1.474.674c.555,0,1.127-.1,1.717-.299l.158.732c-.539.242-1.168.363-1.887.363-.906,0-1.637-.291-2.191-.873s-.832-1.367-.832-2.355c0-.969.249-1.741.747-2.317s1.142-.864,1.931-.864c.703,0,1.291.268,1.764.803s.709,1.248.709,2.139v.287ZM432.935,272.505c0-.477-.148-.878-.445-1.204s-.629-.489-.996-.489c-.473,0-.864.156-1.175.469s-.483.721-.519,1.225h3.135Z"/>
              <path d="M441.009,275.998c-.613.281-1.217.422-1.811.422-1.09,0-1.635-.576-1.635-1.729v-3.732h-1.172v-.791h1.172v-1.67h.891v1.67h2.074v.791h-2.074v3.492c0,.371.082.659.246.864s.387.308.668.308c.5,0,.994-.111,1.482-.334l.158.709Z"/>
              <path d="M450.612,268.005h1.629c1.082,0,1.949.368,2.602,1.104s.979,1.747.979,3.032c0,1.312-.331,2.329-.993,3.05s-1.511,1.081-2.546,1.081h-1.67v-8.268ZM451.573,275.435h.68c.785,0,1.406-.291,1.863-.873s.686-1.389.686-2.42c0-1.023-.229-1.829-.688-2.417s-1.079-.882-1.86-.882h-.68v6.592Z"/>
              <path d="M462.735,273.249h-4.189c0,.691.2,1.262.601,1.711s.892.674,1.474.674c.555,0,1.127-.1,1.717-.299l.158.732c-.539.242-1.168.363-1.887.363-.906,0-1.637-.291-2.191-.873s-.832-1.367-.832-2.355c0-.969.249-1.741.747-2.317s1.142-.864,1.931-.864c.703,0,1.291.268,1.764.803s.709,1.248.709,2.139v.287ZM461.739,272.505c0-.477-.148-.878-.445-1.204s-.629-.489-.996-.489c-.473,0-.864.156-1.175.469-.311.312-.483.721-.519,1.225h3.135Z"/>
              <path d="M469.31,276.273h-2.496v-7.477h-1.594v-.791h2.508v7.477h1.582v.791Z"/>
              <path d="M475.433,276.273h-.914v-5.314h-1.799v-.791h2.713v6.105ZM474.987,267.859c.172,0,.318.062.439.185s.182.271.182.442c0,.18-.06.33-.179.451s-.267.182-.442.182c-.16,0-.302-.063-.425-.19-.123-.127-.185-.274-.185-.442s.062-.314.185-.439c.123-.125.265-.188.425-.188Z"/>
            </g>
          </g>
          <path d="M433.456,289.998c.438-1.375,1.105-2.418,2.004-3.129s1.988-1.066,3.27-1.066c1.516,0,2.734.463,3.656,1.389s1.383,2.15,1.383,3.674c0,1.336-.32,2.41-.961,3.223s-1.871,1.602-3.691,2.367l-.234.105c-2.984,1.258-4.793,2.664-5.426,4.219-.648-1.562-2.453-2.969-5.414-4.219-.109-.047-.195-.082-.258-.105-1.828-.766-3.061-1.551-3.697-2.355s-.955-1.883-.955-3.234c0-1.523.463-2.748,1.389-3.674s2.143-1.389,3.65-1.389c1.289,0,2.381.355,3.275,1.066s1.564,1.754,2.01,3.129Z" fill="#ed1c24"/>
        </g>
        <g id="nice-5" data-name="nice">
          <g>
            <rect x="553.581" y="368.134" width="68.45" height="20.574" fill="#fff"/>
            <g>
              <path d="M562.882,377.97c.562.164.999.443,1.31.838s.466.855.466,1.383c0,.758-.251,1.359-.753,1.805s-1.12.668-1.854.668c-.77,0-1.401-.225-1.896-.674s-.741-1.045-.741-1.787c0-.523.16-.984.48-1.383s.768-.682,1.342-.85c-.457-.117-.823-.343-1.099-.677s-.413-.708-.413-1.122c0-.531.211-1.013.633-1.444s.979-.647,1.67-.647c.684,0,1.249.215,1.696.645s.671.912.671,1.447c0,.402-.141.772-.422,1.11s-.645.567-1.09.688ZM562.026,378.392c-1.07.312-1.605.9-1.605,1.764,0,.504.162.907.486,1.21.324.303.705.454,1.143.454.453,0,.835-.149,1.146-.448s.466-.704.466-1.216c0-.387-.107-.733-.322-1.04s-.652-.548-1.312-.724ZM562.026,377.571c.02,0,.113-.023.281-.07s.312-.104.431-.173.229-.155.331-.261.184-.229.246-.372.094-.302.094-.478c0-.375-.135-.687-.404-.935s-.596-.372-.979-.372c-.371,0-.689.127-.955.381s-.398.562-.398.926c0,.23.048.432.144.604s.215.311.357.416.307.188.492.246.306.088.36.088Z"/>
              <path d="M571.401,382.505h-4.547v-.697c1.152-1.285,1.9-2.146,2.244-2.584s.623-.896.838-1.377.322-.959.322-1.436c0-.461-.14-.824-.419-1.09s-.671-.398-1.175-.398c-.387,0-.906.119-1.559.357l-.135-.826c.59-.25,1.207-.375,1.852-.375.738,0,1.333.208,1.784.624s.677.972.677,1.667c0,.496-.116.988-.349,1.477s-.53.957-.894,1.406-1.07,1.254-2.121,2.414h3.48v.838Z"/>
              <path d="M578.819,382.505h-4.348v-.838h1.752v-6.422l-1.652.826v-.961l1.787-.92h.826v7.477h1.635v.838Z"/>
              <path d="M593.532,381.989c-.648.449-1.4.674-2.256.674-1.07,0-1.884-.367-2.44-1.102s-.835-1.797-.835-3.188c0-1.344.27-2.396.809-3.155s1.361-1.14,2.467-1.14c.398,0,.793.051,1.184.152s.705.236.943.404l-.316.756c-.551-.312-1.154-.469-1.811-.469-.762,0-1.328.276-1.699.829s-.557,1.427-.557,2.622c0,2.297.752,3.445,2.256,3.445.637,0,1.289-.195,1.957-.586l.299.756Z"/>
              <path d="M598.056,376.253c.84,0,1.508.293,2.004.879s.744,1.357.744,2.314c0,.965-.248,1.742-.744,2.332s-1.164.885-2.004.885-1.513-.294-2.007-.882-.741-1.366-.741-2.335c0-.961.248-1.733.744-2.317s1.164-.876,2.004-.876ZM598.056,381.866c.555,0,.992-.234,1.312-.703s.48-1.037.48-1.705c0-.703-.158-1.281-.475-1.734s-.756-.68-1.318-.68c-.566,0-1.006.224-1.318.671s-.469,1.028-.469,1.743c0,.68.158,1.251.475,1.714s.754.694,1.312.694Z"/>
              <path d="M607.718,376.563l-.369.879c-.402-.176-.75-.264-1.043-.264-.27,0-.533.077-.791.231s-.495.375-.712.662-.325.448-.325.483v3.949h-.908v-6.105h.908v1.236c.488-.922,1.121-1.383,1.898-1.383.461,0,.908.104,1.342.311Z"/>
              <path d="M611.034,377.19c.203-.281.478-.508.823-.68s.71-.258,1.093-.258c.703,0,1.255.29,1.655.87s.601,1.335.601,2.265c0,.938-.21,1.718-.63,2.341s-.985.935-1.696.935c-.379,0-.733-.095-1.063-.284s-.591-.44-.782-.753v3.293h-.914v-8.52h.914v.791ZM611.034,378.099v2.537c.172.344.404.631.697.861s.596.346.908.346c.492,0,.884-.23,1.175-.691s.437-1.033.437-1.717c0-.703-.139-1.277-.416-1.723s-.664-.668-1.16-.668c-.645,0-1.191.352-1.641,1.055Z"/>
            </g>
          </g>
          <path d="M540.479,376.112c.438-1.375,1.105-2.418,2.004-3.129s1.988-1.066,3.27-1.066c1.516,0,2.734.463,3.656,1.389s1.383,2.15,1.383,3.674c0,1.336-.32,2.41-.961,3.223s-1.871,1.602-3.691,2.367l-.234.105c-2.984,1.258-4.793,2.664-5.426,4.219-.648-1.562-2.453-2.969-5.414-4.219-.109-.047-.195-.082-.258-.105-1.828-.766-3.061-1.551-3.697-2.355s-.955-1.883-.955-3.234c0-1.523.463-2.748,1.389-3.674s2.143-1.389,3.65-1.389c1.289,0,2.381.355,3.275,1.066s1.564,1.754,2.01,3.129Z" fill="#ed1c24"/>
        </g>
        <g id="nice-6" data-name="nice">
          <path d="M564.545,290.064c.438-1.375,1.105-2.418,2.004-3.129s1.988-1.066,3.27-1.066c1.516,0,2.734.463,3.656,1.389s1.383,2.15,1.383,3.674c0,1.336-.32,2.41-.961,3.223s-1.871,1.602-3.691,2.367l-.234.105c-2.984,1.258-4.793,2.664-5.426,4.219-.648-1.562-2.453-2.969-5.414-4.219-.109-.047-.195-.082-.258-.105-1.828-.766-3.061-1.551-3.697-2.355-.637-.805-.955-1.883-.955-3.234,0-1.523.463-2.748,1.389-3.674s2.143-1.389,3.65-1.389c1.289,0,2.381.355,3.275,1.066s1.564,1.754,2.01,3.129Z" fill="#ed1c24"/>
          <g>
            <rect x="579.358" y="282.54" width="64.494" height="20.574" fill="#fff"/>
            <g>
              <path d="M591.198,297.408h-.926v-7.09l-1.248,3.393h-.908l-1.248-3.393v7.09h-.926v-8.268h1.248l1.383,3.768,1.377-3.768h1.248v8.268Z"/>
              <path d="M598.194,291.466l-.369.879c-.402-.176-.75-.264-1.043-.264-.27,0-.533.077-.791.231s-.495.375-.712.662c-.217.287-.325.448-.325.483v3.949h-.908v-6.105h.908v1.236c.488-.922,1.121-1.383,1.898-1.383.461,0,.908.104,1.342.311Z"/>
              <path d="M613.604,297.408h-1.213l-2.795-4.055-.873.949v3.105h-.961v-8.268h.961v3.961l3.668-3.961h1.107l-3.229,3.492,3.334,4.775Z"/>
              <path d="M619.856,297.408h-.908c-.074-.246-.111-.574-.111-.984-.52.762-1.227,1.143-2.121,1.143-.453,0-.853-.161-1.198-.483s-.519-.737-.519-1.245c0-.301.061-.566.182-.797s.299-.425.533-.583.52-.283.855-.375.734-.155,1.195-.19l1.025-.082v-.293c0-1.047-.488-1.57-1.465-1.57-.23,0-.522.05-.876.149s-.657.218-.911.354l-.24-.656c.832-.426,1.605-.639,2.32-.639,1.391,0,2.086.736,2.086,2.209v2.625c0,.531.051,1.004.152,1.418ZM618.79,295.597v-1.107c-.824.074-1.39.144-1.696.208s-.572.185-.797.36-.337.414-.337.715c0,.273.096.494.287.662s.436.252.732.252c.324,0,.646-.097.967-.29s.602-.46.844-.8Z"/>
              <path d="M626.46,297.408h-2.496v-7.477h-1.594v-.791h2.508v7.477h1.582v.791Z"/>
              <path d="M634.288,294.384h-4.189c0,.691.2,1.262.601,1.711s.892.674,1.474.674c.555,0,1.127-.1,1.717-.299l.158.732c-.539.242-1.168.363-1.887.363-.906,0-1.637-.291-2.191-.873s-.832-1.367-.832-2.355c0-.969.249-1.741.747-2.317s1.142-.864,1.931-.864c.703,0,1.291.268,1.764.803s.709,1.248.709,2.139v.287ZM633.292,293.64c0-.477-.148-.878-.445-1.204s-.629-.489-.996-.489c-.473,0-.864.156-1.175.469s-.483.721-.519,1.225h3.135Z"/>
            </g>
          </g>
        </g>
        <g id="nice-7" data-name="nice">
          <g>
            <rect x="435.028" y="191.868" width="131.727" height="20.574" fill="#fff"/>
            <g>
              <path d="M444.595,206.314h-3.756v-.838h1.424v-6.592h-1.424v-.838h3.756v.838h-1.371v6.592h1.371v.838Z"/>
              <path d="M452.3,206.314h-.914v-.879c-.188.301-.456.549-.806.744s-.718.293-1.104.293c-.699,0-1.252-.312-1.658-.935s-.609-1.413-.609-2.37c0-.895.212-1.636.636-2.224s.985-.882,1.685-.882c.77,0,1.389.312,1.857.938v-2.953h.914v8.268ZM451.386,204.445v-2.537c-.438-.703-.965-1.055-1.582-1.055-.504,0-.902.224-1.195.671s-.439,1.013-.439,1.696c0,.703.138,1.284.413,1.743s.653.688,1.134.688c.23,0,.463-.062.697-.188s.455-.312.662-.562.311-.402.311-.457Z"/>
              <path d="M459.706,203.29h-4.189c0,.691.2,1.262.601,1.711s.892.674,1.474.674c.555,0,1.127-.1,1.717-.299l.158.732c-.539.242-1.168.363-1.887.363-.906,0-1.637-.291-2.191-.873s-.832-1.367-.832-2.355c0-.969.249-1.741.747-2.317s1.142-.864,1.931-.864c.703,0,1.291.268,1.764.803s.709,1.248.709,2.139v.287ZM458.71,202.546c0-.477-.148-.878-.445-1.204s-.629-.489-.996-.489c-.473,0-.864.156-1.175.469s-.483.721-.519,1.225h3.135Z"/>
              <path d="M466.878,206.314h-.908c-.074-.246-.111-.574-.111-.984-.52.762-1.227,1.143-2.121,1.143-.453,0-.853-.161-1.198-.483s-.519-.737-.519-1.245c0-.301.061-.566.182-.797s.299-.425.533-.583.52-.283.855-.375.734-.155,1.195-.19l1.025-.082v-.293c0-1.047-.488-1.57-1.465-1.57-.23,0-.522.05-.876.149s-.657.218-.911.354l-.24-.656c.832-.426,1.605-.639,2.32-.639,1.391,0,2.086.736,2.086,2.209v2.625c0,.531.051,1.004.152,1.418ZM465.812,204.503v-1.107c-.824.074-1.39.144-1.696.208s-.572.185-.797.36-.337.414-.337.715c0,.273.096.494.287.662s.436.252.732.252c.324,0,.646-.097.967-.29s.602-.46.844-.8Z"/>
              <path d="M473.481,206.314h-2.496v-7.477h-1.594v-.791h2.508v7.477h1.582v.791Z"/>
              <path d="M488.247,198.884h-3.422v2.701h3.117v.838h-3.117v3.891h-.961v-8.268h4.383v.838Z"/>
              <path d="M493.163,200.062c.84,0,1.508.293,2.004.879s.744,1.357.744,2.314c0,.965-.248,1.742-.744,2.332s-1.164.885-2.004.885-1.513-.294-2.007-.882-.741-1.366-.741-2.335c0-.961.248-1.733.744-2.317s1.164-.876,2.004-.876ZM493.163,205.675c.555,0,.992-.234,1.312-.703s.48-1.037.48-1.705c0-.703-.158-1.281-.475-1.734s-.756-.68-1.318-.68c-.566,0-1.006.224-1.318.671s-.469,1.028-.469,1.743c0,.68.158,1.251.475,1.714s.754.694,1.312.694Z"/>
              <path d="M500.364,200.062c.84,0,1.508.293,2.004.879s.744,1.357.744,2.314c0,.965-.248,1.742-.744,2.332s-1.164.885-2.004.885-1.513-.294-2.007-.882-.741-1.366-.741-2.335c0-.961.248-1.733.744-2.317s1.164-.876,2.004-.876ZM500.364,205.675c.555,0,.992-.234,1.312-.703s.48-1.037.48-1.705c0-.703-.158-1.281-.475-1.734s-.756-.68-1.318-.68c-.566,0-1.006.224-1.318.671s-.469,1.028-.469,1.743c0,.68.158,1.251.475,1.714s.754.694,1.312.694Z"/>
              <path d="M509.909,206.314h-.914v-.879c-.188.301-.456.549-.806.744s-.718.293-1.104.293c-.699,0-1.252-.312-1.658-.935s-.609-1.413-.609-2.37c0-.895.212-1.636.636-2.224s.985-.882,1.685-.882c.77,0,1.389.312,1.857.938v-2.953h.914v8.268ZM508.995,204.445v-2.537c-.438-.703-.965-1.055-1.582-1.055-.504,0-.902.224-1.195.671s-.439,1.013-.439,1.696c0,.703.138,1.284.413,1.743s.653.688,1.134.688c.23,0,.463-.062.697-.188s.455-.312.662-.562.311-.402.311-.457Z"/>
              <path d="M522.964,201.779c.551.129.982.379,1.295.75s.469.812.469,1.324c0,.75-.272,1.348-.817,1.793s-1.2.668-1.966.668h-2.35v-8.268h2.291c.797,0,1.42.175,1.869.524s.674.843.674,1.479c0,.391-.13.738-.39,1.043s-.618.525-1.075.662v.023ZM520.556,201.333h1.125c1.176,0,1.764-.42,1.764-1.26,0-.383-.145-.677-.434-.882s-.713-.308-1.271-.308h-1.184v2.449ZM520.556,205.476h1.09c.637,0,1.142-.145,1.515-.434s.56-.686.56-1.189c0-.535-.184-.949-.551-1.242s-.898-.439-1.594-.439h-1.02v3.305Z"/>
              <path d="M531.688,206.314h-.908c-.074-.246-.111-.574-.111-.984-.52.762-1.227,1.143-2.121,1.143-.453,0-.853-.161-1.198-.483s-.519-.737-.519-1.245c0-.301.061-.566.182-.797s.299-.425.533-.583.52-.283.855-.375.734-.155,1.195-.19l1.025-.082v-.293c0-1.047-.488-1.57-1.465-1.57-.23,0-.522.05-.876.149s-.657.218-.911.354l-.24-.656c.832-.426,1.605-.639,2.32-.639,1.391,0,2.086.736,2.086,2.209v2.625c0,.531.051,1.004.152,1.418ZM530.622,204.503v-1.107c-.824.074-1.39.144-1.696.208s-.572.185-.797.36-.337.414-.337.715c0,.273.096.494.287.662s.436.252.732.252c.324,0,.646-.097.967-.29s.602-.46.844-.8Z"/>
              <path d="M538.099,201.082c-.512-.168-.994-.252-1.447-.252-.496,0-.889.083-1.178.249s-.434.388-.434.665c0,.176.066.329.199.46s.398.253.797.366l.873.252c.402.113.73.249.984.407s.444.35.571.574.19.485.19.782c0,.582-.244,1.042-.732,1.38s-1.109.507-1.863.507c-.75,0-1.369-.113-1.857-.34l.176-.791c.512.242,1.061.363,1.646.363.508,0,.921-.095,1.239-.284s.478-.44.478-.753c0-.211-.079-.399-.237-.565s-.53-.339-1.116-.519c-.473-.145-.82-.253-1.043-.325s-.43-.179-.621-.319-.337-.309-.437-.504c-.1-.195-.149-.414-.149-.656,0-.527.23-.945.691-1.254s1.072-.463,1.834-.463c.492,0,1.039.084,1.641.252l-.205.768Z"/>
              <path d="M546.536,206.314h-1.201l-2.59-3.035-.598.516v2.52h-.914v-8.268h.914v4.74l2.865-2.578h1.166l-2.783,2.496,3.141,3.609Z"/>
              <path d="M553.321,203.29h-4.189c0,.691.2,1.262.601,1.711s.892.674,1.474.674c.555,0,1.127-.1,1.717-.299l.158.732c-.539.242-1.168.363-1.887.363-.906,0-1.637-.291-2.191-.873s-.832-1.367-.832-2.355c0-.969.249-1.741.747-2.317s1.142-.864,1.931-.864c.703,0,1.291.268,1.764.803s.709,1.248.709,2.139v.287ZM552.325,202.546c0-.477-.148-.878-.445-1.204s-.629-.489-.996-.489c-.473,0-.864.156-1.175.469s-.483.721-.519,1.225h3.135Z"/>
              <path d="M560.399,206.039c-.613.281-1.217.422-1.811.422-1.09,0-1.635-.576-1.635-1.729v-3.732h-1.172v-.791h1.172v-1.67h.891v1.67h2.074v.791h-2.074v3.492c0,.371.082.659.246.864s.387.308.668.308c.5,0,.994-.111,1.482-.334l.158.709Z"/>
            </g>
          </g>
          <path d="M420.858,198.909c.438-1.375,1.105-2.418,2.004-3.129s1.988-1.066,3.27-1.066c1.516,0,2.734.463,3.656,1.389s1.383,2.15,1.383,3.674c0,1.336-.32,2.41-.961,3.223s-1.871,1.602-3.691,2.367l-.234.105c-2.984,1.258-4.793,2.664-5.426,4.219-.648-1.562-2.453-2.969-5.414-4.219-.109-.047-.195-.082-.258-.105-1.828-.766-3.061-1.551-3.697-2.355s-.955-1.883-.955-3.234c0-1.523.463-2.748,1.389-3.674s2.143-1.389,3.65-1.389c1.289,0,2.381.355,3.275,1.066s1.564,1.754,2.01,3.129Z" fill="#ed1c24"/>
        </g>
        <g id="nice-8" data-name="nice">
          <g>
            <rect x="91.497" y="196.47" width="141.716" height="20.574" fill="#fff"/>
            <g>
              <path d="M102.667,202.442l-3.275,7.582h-.984l3.229-7.43h-3.873v-.838h4.904v.686Z"/>
              <path d="M109.822,209.749c-.613.281-1.217.422-1.811.422-1.09,0-1.635-.576-1.635-1.729v-3.732h-1.172v-.791h1.172v-1.67h.891v1.67h2.074v.791h-2.074v3.492c0,.371.082.659.246.864s.387.308.668.308c.5,0,.994-.111,1.482-.334l.158.709Z"/>
              <path d="M116.964,210.024h-.914v-3.914c0-.543-.087-.937-.261-1.181s-.446-.366-.817-.366c-.559,0-1.158.348-1.799,1.043v4.418h-.914v-8.268h.914v3.059c.656-.695,1.348-1.043,2.074-1.043,1.145,0,1.717.691,1.717,2.074v4.178Z"/>
              <path d="M132.292,210.024h-1.008l-.914-2.895h-2.713l-.926,2.895h-.996l2.701-8.268h1.154l2.701,8.268ZM130.095,206.292l-1.084-3.422-1.078,3.422h2.162Z"/>
              <path d="M138.843,203.919l-2.314,6.105h-.832l-2.303-6.105h.996l1.729,4.857,1.729-4.857h.996Z"/>
              <path d="M145.951,207.001h-4.189c0,.691.2,1.262.601,1.711s.892.674,1.474.674c.555,0,1.127-.1,1.717-.299l.158.732c-.539.242-1.168.363-1.887.363-.906,0-1.637-.291-2.191-.873s-.832-1.367-.832-2.355c0-.969.249-1.741.747-2.317s1.142-.864,1.931-.864c.703,0,1.291.268,1.764.803s.709,1.248.709,2.139v.287ZM144.955,206.257c0-.477-.148-.878-.445-1.204s-.629-.489-.996-.489c-.473,0-.864.156-1.175.469s-.483.721-.519,1.225h3.135Z"/>
              <path d="M152.97,210.024h-.914v-3.914c0-.543-.087-.937-.261-1.181s-.446-.366-.817-.366c-.559,0-1.158.348-1.799,1.043v4.418h-.914v-6.105h.914v.896c.656-.695,1.348-1.043,2.074-1.043,1.145,0,1.717.691,1.717,2.074v4.178Z"/>
              <path d="M160.16,210.024h-.914v-.902c-.656.699-1.348,1.049-2.074,1.049-1.145,0-1.717-.693-1.717-2.08v-4.172h.914v3.908c0,.52.082.907.246,1.163s.441.384.832.384c.559,0,1.158-.348,1.799-1.043v-4.412h.914v6.105Z"/>
              <path d="M167.554,207.001h-4.189c0,.691.2,1.262.601,1.711s.892.674,1.474.674c.555,0,1.127-.1,1.717-.299l.158.732c-.539.242-1.168.363-1.887.363-.906,0-1.637-.291-2.191-.873s-.832-1.367-.832-2.355c0-.969.249-1.741.747-2.317s1.142-.864,1.931-.864c.703,0,1.291.268,1.764.803s.709,1.248.709,2.139v.287ZM166.558,206.257c0-.477-.148-.878-.445-1.204s-.629-.489-.996-.489c-.473,0-.864.156-1.175.469s-.483.721-.519,1.225h3.135Z"/>
              <path d="M182.074,209.438c-.676.496-1.424.744-2.244.744-1.074,0-1.889-.364-2.443-1.093s-.832-1.794-.832-3.196c0-1.355.269-2.41.806-3.164s1.36-1.131,2.47-1.131c.398,0,.793.051,1.184.152s.705.236.943.404l-.316.756c-.551-.312-1.154-.469-1.811-.469-.758,0-1.323.277-1.696.832s-.56,1.428-.56,2.619c0,2.297.752,3.445,2.256,3.445.566,0,.994-.119,1.283-.357v-2.039h-1.488v-.832h2.449v3.328Z"/>
              <path d="M186.609,203.772c.84,0,1.508.293,2.004.879s.744,1.357.744,2.314c0,.965-.248,1.742-.744,2.332s-1.164.885-2.004.885-1.513-.294-2.007-.882-.741-1.366-.741-2.335c0-.961.248-1.733.744-2.317s1.164-.876,2.004-.876ZM186.609,209.386c.555,0,.992-.234,1.312-.703s.48-1.037.48-1.705c0-.703-.158-1.281-.475-1.734s-.756-.68-1.318-.68c-.566,0-1.006.224-1.318.671s-.469,1.028-.469,1.743c0,.68.158,1.251.475,1.714s.754.694,1.312.694Z"/>
              <path d="M196.166,210.024h-.914v-.902c-.656.699-1.348,1.049-2.074,1.049-1.145,0-1.717-.693-1.717-2.08v-4.172h.914v3.908c0,.52.082.907.246,1.163s.441.384.832.384c.559,0,1.158-.348,1.799-1.043v-4.412h.914v6.105Z"/>
              <path d="M203.472,204.083l-.369.879c-.402-.176-.75-.264-1.043-.264-.27,0-.533.077-.791.231s-.495.375-.712.662-.325.448-.325.483v3.949h-.908v-6.105h.908v1.236c.488-.922,1.121-1.383,1.898-1.383.461,0,.908.104,1.342.311Z"/>
              <path d="M211.06,210.024h-.914v-4.008c0-.969-.18-1.453-.539-1.453-.184,0-.386.167-.606.501s-.331.519-.331.554v4.406h-.908v-4.008c0-.969-.182-1.453-.545-1.453-.18,0-.38.167-.601.501s-.331.519-.331.554v4.406h-.914v-6.105h.879v.92c.172-.324.376-.583.612-.776.236-.193.472-.29.706-.29.246,0,.467.097.662.29.195.193.33.452.404.776.172-.324.377-.583.615-.776.238-.193.473-.29.703-.29.738,0,1.107.66,1.107,1.98v4.271Z"/>
              <path d="M217.962,207.001h-4.189c0,.691.2,1.262.601,1.711s.892.674,1.474.674c.555,0,1.127-.1,1.717-.299l.158.732c-.539.242-1.168.363-1.887.363-.906,0-1.637-.291-2.191-.873s-.832-1.367-.832-2.355c0-.969.249-1.741.747-2.317s1.142-.864,1.931-.864c.703,0,1.291.268,1.764.803s.709,1.248.709,2.139v.287ZM216.966,206.257c0-.477-.148-.878-.445-1.204s-.629-.489-.996-.489c-.473,0-.864.156-1.175.469s-.483.721-.519,1.225h3.135Z"/>
              <path d="M225.041,209.749c-.613.281-1.217.422-1.811.422-1.09,0-1.635-.576-1.635-1.729v-3.732h-1.172v-.791h1.172v-1.67h.891v1.67h2.074v.791h-2.074v3.492c0,.371.082.659.246.864s.387.308.668.308c.5,0,.994-.111,1.482-.334l.158.709Z"/>
            </g>
          </g>
          <path d="M161.395,222.969c.438-1.375,1.105-2.418,2.004-3.129s1.988-1.066,3.27-1.066c1.516,0,2.734.463,3.656,1.389s1.383,2.15,1.383,3.674c0,1.336-.32,2.41-.961,3.223s-1.871,1.602-3.691,2.367l-.234.105c-2.984,1.258-4.793,2.664-5.426,4.219-.648-1.562-2.453-2.969-5.414-4.219-.109-.047-.195-.082-.258-.105-1.828-.766-3.061-1.551-3.697-2.355s-.955-1.883-.955-3.234c0-1.523.463-2.748,1.389-3.674s2.143-1.389,3.65-1.389c1.289,0,2.381.355,3.275,1.066s1.564,1.754,2.01,3.129Z" fill="#ed1c24"/>
        </g>
        <g id="nice-9" data-name="nice">
          <g>
            <rect x="132.079" y="285.935" width="205.36" height="20.574" fill="#fff"/>
            <g>
              <path d="M143.005,300.046h-1.213l-2.795-4.055-.873.949v3.105h-.961v-8.268h.961v3.961l3.668-3.961h1.107l-3.229,3.492,3.334,4.775Z"/>
              <path d="M149.287,297.022h-4.189c0,.691.2,1.262.601,1.711s.892.674,1.474.674c.555,0,1.127-.1,1.717-.299l.158.732c-.539.242-1.168.363-1.887.363-.906,0-1.637-.291-2.191-.873s-.832-1.367-.832-2.355c0-.969.249-1.741.747-2.317s1.142-.864,1.931-.864c.703,0,1.291.268,1.764.803s.709,1.248.709,2.139v.287ZM148.291,296.278c0-.477-.148-.878-.445-1.204s-.629-.489-.996-.489c-.473,0-.864.156-1.175.469s-.483.721-.519,1.225h3.135Z"/>
              <path d="M156.582,293.94l-2.314,6.105c-.336.898-.669,1.525-.999,1.881s-.706.533-1.128.533c-.375,0-.746-.068-1.113-.205l.152-.732c.297.094.562.141.797.141.328,0,.598-.127.809-.381s.424-.67.639-1.248l-2.291-6.094h.996l1.729,4.869,1.729-4.869h.996Z"/>
              <path d="M170.626,292.616h-3.422v2.701h3.117v.838h-3.117v3.891h-.961v-8.268h4.383v.838Z"/>
              <path d="M175.542,293.794c.84,0,1.508.293,2.004.879s.744,1.357.744,2.314c0,.965-.248,1.742-.744,2.332s-1.164.885-2.004.885-1.513-.294-2.007-.882-.741-1.366-.741-2.335c0-.961.248-1.733.744-2.317s1.164-.876,2.004-.876ZM175.542,299.407c.555,0,.992-.234,1.312-.703s.48-1.037.48-1.705c0-.703-.158-1.281-.475-1.734s-.756-.68-1.318-.68c-.566,0-1.006.224-1.318.671s-.469,1.028-.469,1.743c0,.68.158,1.251.475,1.714s.754.694,1.312.694Z"/>
              <path d="M182.744,293.794c.84,0,1.508.293,2.004.879s.744,1.357.744,2.314c0,.965-.248,1.742-.744,2.332s-1.164.885-2.004.885-1.513-.294-2.007-.882-.741-1.366-.741-2.335c0-.961.248-1.733.744-2.317s1.164-.876,2.004-.876ZM182.744,299.407c.555,0,.992-.234,1.312-.703s.48-1.037.48-1.705c0-.703-.158-1.281-.475-1.734s-.756-.68-1.318-.68c-.566,0-1.006.224-1.318.671s-.469,1.028-.469,1.743c0,.68.158,1.251.475,1.714s.754.694,1.312.694Z"/>
              <path d="M192.289,300.046h-.914v-.879c-.188.301-.456.549-.806.744s-.718.293-1.104.293c-.699,0-1.252-.312-1.658-.935s-.609-1.413-.609-2.37c0-.895.212-1.636.636-2.224s.985-.882,1.685-.882c.77,0,1.389.312,1.857.938v-2.953h.914v8.268ZM191.375,298.177v-2.537c-.438-.703-.965-1.055-1.582-1.055-.504,0-.902.224-1.195.671s-.439,1.013-.439,1.696c0,.703.138,1.284.413,1.743s.653.688,1.134.688c.23,0,.463-.062.697-.188s.455-.312.662-.562.311-.402.311-.457Z"/>
              <path d="M206.726,297.444c0,.957-.194,1.656-.583,2.098s-.979.662-1.772.662c-1.598,0-2.396-.912-2.396-2.736v-5.689h.961v5.602c0,1.32.479,1.98,1.436,1.98.48,0,.833-.156,1.058-.469s.337-.82.337-1.523v-5.59h.961v5.666Z"/>
              <path d="M214.009,294.104l-.369.879c-.402-.176-.75-.264-1.043-.264-.27,0-.533.077-.791.231s-.495.375-.712.662-.325.448-.325.483v3.949h-.908v-6.105h.908v1.236c.488-.922,1.121-1.383,1.898-1.383.461,0,.908.104,1.342.311Z"/>
              <path d="M217.326,294.731c.203-.281.478-.508.823-.68s.71-.258,1.093-.258c.711,0,1.265.285,1.661.855s.595,1.32.595,2.25c0,.941-.211,1.728-.633,2.358s-.986.946-1.693.946c-.379,0-.733-.095-1.063-.284s-.591-.44-.782-.753v.879h-.914v-8.268h.914v2.953ZM217.326,295.64v2.537c.172.344.404.631.697.861s.596.346.908.346c.492,0,.884-.234,1.175-.703s.437-1.045.437-1.729c0-.703-.139-1.273-.416-1.711s-.664-.656-1.16-.656c-.645,0-1.191.352-1.641,1.055Z"/>
              <path d="M228.47,300.046h-.908c-.074-.246-.111-.574-.111-.984-.52.762-1.227,1.143-2.121,1.143-.453,0-.853-.161-1.198-.483s-.519-.737-.519-1.245c0-.301.061-.566.182-.797s.299-.425.533-.583c.234-.158.52-.283.855-.375.336-.092.734-.155,1.195-.19l1.025-.082v-.293c0-1.047-.488-1.57-1.465-1.57-.23,0-.522.05-.876.149s-.657.218-.911.354l-.24-.656c.832-.426,1.605-.639,2.32-.639,1.391,0,2.086.736,2.086,2.209v2.625c0,.531.051,1.004.152,1.418ZM227.404,298.235v-1.107c-.824.074-1.39.144-1.696.208s-.572.185-.797.36-.337.414-.337.715c0,.273.096.494.287.662s.436.252.732.252c.324,0,.646-.097.967-.29s.602-.46.844-.8Z"/>
              <path d="M235.519,300.046h-.914v-3.914c0-.543-.087-.937-.261-1.181s-.446-.366-.817-.366c-.559,0-1.158.348-1.799,1.043v4.418h-.914v-6.105h.914v.896c.656-.695,1.348-1.043,2.074-1.043,1.145,0,1.717.691,1.717,2.074v4.178Z"/>
              <path d="M250.22,300.046h-.926v-7.09l-1.248,3.393h-.908l-1.248-3.393v7.09h-.926v-8.268h1.248l1.383,3.768,1.377-3.768h1.248v8.268Z"/>
              <path d="M257.275,300.046h-.908c-.074-.246-.111-.574-.111-.984-.52.762-1.227,1.143-2.121,1.143-.453,0-.853-.161-1.198-.483s-.519-.737-.519-1.245c0-.301.061-.566.182-.797s.299-.425.533-.583c.234-.158.52-.283.855-.375.336-.092.734-.155,1.195-.19l1.025-.082v-.293c0-1.047-.488-1.57-1.465-1.57-.23,0-.522.05-.876.149s-.657.218-.911.354l-.24-.656c.832-.426,1.605-.639,2.32-.639,1.391,0,2.086.736,2.086,2.209v2.625c0,.531.051,1.004.152,1.418ZM256.208,298.235v-1.107c-.824.074-1.39.144-1.696.208s-.572.185-.797.36-.337.414-.337.715c0,.273.096.494.287.662s.436.252.732.252c.324,0,.646-.097.967-.29s.602-.46.844-.8Z"/>
              <path d="M264.417,294.104l-.369.879c-.402-.176-.75-.264-1.043-.264-.27,0-.533.077-.791.231s-.495.375-.712.662-.325.448-.325.483v3.949h-.908v-6.105h.908v1.236c.488-.922,1.121-1.383,1.898-1.383.461,0,.908.104,1.342.311Z"/>
              <path d="M272.123,300.046h-1.201l-2.59-3.035-.598.516v2.52h-.914v-8.268h.914v4.74l2.865-2.578h1.166l-2.783,2.496,3.141,3.609Z"/>
              <path d="M278.908,297.022h-4.189c0,.691.2,1.262.601,1.711s.892.674,1.474.674c.555,0,1.127-.1,1.717-.299l.158.732c-.539.242-1.168.363-1.887.363-.906,0-1.637-.291-2.191-.873s-.832-1.367-.832-2.355c0-.969.249-1.741.747-2.317s1.142-.864,1.931-.864c.703,0,1.291.268,1.764.803s.709,1.248.709,2.139v.287ZM277.912,296.278c0-.477-.148-.878-.445-1.204s-.629-.489-.996-.489c-.473,0-.864.156-1.175.469s-.483.721-.519,1.225h3.135Z"/>
              <path d="M285.986,299.77c-.613.281-1.217.422-1.811.422-1.09,0-1.635-.576-1.635-1.729v-3.732h-1.172v-.791h1.172v-1.67h.891v1.67h2.074v.791h-2.074v3.492c0,.371.082.659.246.864s.387.308.668.308c.5,0,.994-.111,1.482-.334l.158.709Z"/>
              <path d="M295.865,291.778h2.098c.793,0,1.428.199,1.904.598s.715.947.715,1.646c0,.703-.237,1.265-.712,1.685s-1.097.63-1.866.63h-1.178v3.709h-.961v-8.268ZM296.826,295.499h1.043c1.129,0,1.693-.473,1.693-1.418,0-.438-.153-.791-.46-1.061s-.702-.404-1.187-.404h-1.09v2.883Z"/>
              <path d="M307.085,300.046h-2.496v-7.477h-1.594v-.791h2.508v7.477h1.582v.791Z"/>
              <path d="M314.884,300.046h-.908c-.074-.246-.111-.574-.111-.984-.52.762-1.227,1.143-2.121,1.143-.453,0-.853-.161-1.198-.483s-.519-.737-.519-1.245c0-.301.061-.566.182-.797s.299-.425.533-.583c.234-.158.52-.283.855-.375.336-.092.734-.155,1.195-.19l1.025-.082v-.293c0-1.047-.488-1.57-1.465-1.57-.23,0-.522.05-.876.149s-.657.218-.911.354l-.24-.656c.832-.426,1.605-.639,2.32-.639,1.391,0,2.086.736,2.086,2.209v2.625c0,.531.051,1.004.152,1.418ZM313.818,298.235v-1.107c-.824.074-1.39.144-1.696.208s-.572.185-.797.36-.337.414-.337.715c0,.273.096.494.287.662s.436.252.732.252c.324,0,.646-.097.967-.29s.602-.46.844-.8Z"/>
              <path d="M321.91,299.841c-.531.242-1.115.363-1.752.363-.961,0-1.728-.292-2.3-.876s-.858-1.36-.858-2.329.288-1.745.864-2.329,1.333-.876,2.271-.876c.613,0,1.197.107,1.752.322l-.24.756c-.555-.191-1.055-.287-1.5-.287-.672,0-1.204.217-1.597.65s-.589,1.021-.589,1.764c0,.68.203,1.251.609,1.714s.936.694,1.588.694c.516,0,1.047-.1,1.594-.299l.158.732Z"/>
              <path d="M329.315,297.022h-4.189c0,.691.2,1.262.601,1.711.4.449.891.674,1.473.674.555,0,1.127-.1,1.717-.299l.158.732c-.539.242-1.168.363-1.887.363-.906,0-1.636-.291-2.191-.873s-.832-1.367-.832-2.355c0-.969.249-1.741.747-2.317s1.141-.864,1.93-.864c.703,0,1.291.268,1.764.803s.709,1.248.709,2.139v.287ZM328.319,296.278c0-.477-.148-.878-.445-1.204s-.629-.489-.996-.489c-.473,0-.864.156-1.174.469-.311.312-.483.721-.519,1.225h3.134Z"/>
            </g>
          </g>
          <path d="M120.109,292.171c.438-1.375,1.105-2.418,2.004-3.129s1.988-1.066,3.27-1.066c1.516,0,2.734.463,3.656,1.389s1.383,2.15,1.383,3.674c0,1.336-.32,2.41-.961,3.223s-1.871,1.602-3.691,2.367l-.234.105c-2.984,1.258-4.793,2.664-5.426,4.219-.648-1.562-2.453-2.969-5.414-4.219-.109-.047-.195-.082-.258-.105-1.828-.766-3.061-1.551-3.697-2.355s-.955-1.883-.955-3.234c0-1.523.463-2.748,1.389-3.674s2.143-1.389,3.65-1.389c1.289,0,2.381.355,3.275,1.066s1.564,1.754,2.01,3.129Z" fill="#ed1c24"/>
        </g>
        <g id="nice-10" data-name="nice">
          <g>
            <rect x="32.126" y="242.856" width="162.991" height="20.574" fill="#fff"/>
            <g>
              <path d="M42.48,248.286h2.098c.793,0,1.428.199,1.904.598s.715.947.715,1.646c0,.703-.237,1.265-.712,1.685s-1.097.63-1.866.63h-1.178v3.709h-.961v-8.268ZM43.441,252.006h1.043c1.129,0,1.693-.473,1.693-1.418,0-.438-.153-.791-.46-1.061s-.702-.404-1.187-.404h-1.09v2.883Z"/>
              <path d="M54.298,256.553h-.908c-.074-.246-.111-.574-.111-.984-.52.762-1.227,1.143-2.121,1.143-.453,0-.853-.161-1.198-.483s-.519-.737-.519-1.245c0-.301.061-.566.182-.797s.299-.425.533-.583.52-.283.855-.375.734-.155,1.195-.19l1.025-.082v-.293c0-1.047-.488-1.57-1.465-1.57-.23,0-.522.05-.876.149s-.657.218-.911.354l-.24-.656c.832-.426,1.605-.639,2.32-.639,1.391,0,2.086.736,2.086,2.209v2.625c0,.531.051,1.004.152,1.418ZM53.232,254.743v-1.107c-.824.074-1.39.144-1.696.208s-.572.185-.797.36-.337.414-.337.715c0,.273.096.494.287.662s.436.252.732.252c.324,0,.646-.097.967-.29s.602-.46.844-.8Z"/>
              <path d="M61.441,250.612l-.369.879c-.402-.176-.75-.264-1.043-.264-.27,0-.533.077-.791.231s-.495.375-.712.662-.325.448-.325.483v3.949h-.908v-6.105h.908v1.236c.488-.922,1.121-1.383,1.898-1.383.461,0,.908.104,1.342.311Z"/>
              <path d="M69.146,256.553h-1.201l-2.59-3.035-.598.516v2.52h-.914v-8.268h.914v4.74l2.865-2.578h1.166l-2.783,2.496,3.141,3.609Z"/>
              <path d="M82.347,249.2c-.492-.168-.959-.252-1.4-.252-.5,0-.907.114-1.222.343s-.472.554-.472.976c0,.5.412.939,1.236,1.318.609.281,1.013.477,1.21.586s.397.26.601.451.366.417.489.677.185.552.185.876c0,.805-.271,1.429-.812,1.872s-1.179.665-1.913.665c-.711,0-1.334-.141-1.869-.422l.199-.826c.629.285,1.178.428,1.646.428.547,0,.985-.142,1.315-.425s.495-.673.495-1.169c0-.367-.107-.679-.322-.935s-.611-.517-1.189-.782c-.594-.273-.978-.46-1.151-.56s-.347-.237-.519-.413-.305-.373-.398-.592-.141-.457-.141-.715c0-.684.246-1.217.738-1.6s1.115-.574,1.869-.574c.551,0,1.098.084,1.641.252l-.217.82Z"/>
              <path d="M89.707,256.553h-2.496v-7.477h-1.594v-.791h2.508v7.477h1.582v.791Z"/>
              <path d="M94.986,250.301c.84,0,1.508.293,2.004.879s.744,1.357.744,2.314c0,.965-.248,1.742-.744,2.332s-1.164.885-2.004.885-1.513-.294-2.007-.882-.741-1.366-.741-2.335c0-.961.248-1.733.744-2.317s1.164-.876,2.004-.876ZM94.986,255.915c.555,0,.992-.234,1.312-.703s.48-1.037.48-1.705c0-.703-.158-1.281-.475-1.734s-.756-.68-1.318-.68c-.566,0-1.006.224-1.318.671s-.469,1.028-.469,1.743c0,.68.158,1.251.475,1.714s.754.694,1.312.694Z"/>
              <path d="M100.763,251.239c.203-.281.478-.508.823-.68s.71-.258,1.093-.258c.703,0,1.255.29,1.655.87s.601,1.335.601,2.265c0,.938-.21,1.718-.63,2.341s-.985.935-1.696.935c-.379,0-.733-.095-1.063-.284s-.591-.44-.782-.753v3.293h-.914v-8.52h.914v.791ZM100.763,252.147v2.537c.172.344.404.631.697.861s.596.346.908.346c.492,0,.884-.23,1.175-.691s.437-1.033.437-1.717c0-.703-.139-1.277-.416-1.723s-.664-.668-1.16-.668c-.645,0-1.191.352-1.641,1.055Z"/>
              <path d="M111.937,253.53h-4.189c0,.691.2,1.262.601,1.711s.892.674,1.474.674c.555,0,1.127-.1,1.717-.299l.158.732c-.539.242-1.168.363-1.887.363-.906,0-1.637-.291-2.191-.873s-.832-1.367-.832-2.355c0-.969.249-1.741.747-2.317s1.142-.864,1.931-.864c.703,0,1.291.268,1.764.803s.709,1.248.709,2.139v.287ZM110.941,252.786c0-.477-.148-.878-.445-1.204s-.629-.489-.996-.489c-.473,0-.864.156-1.175.469s-.483.721-.519,1.225h3.135Z"/>
              <path d="M126.076,249.123h-3.422v2.701h3.117v.838h-3.117v3.891h-.961v-8.268h4.383v.838Z"/>
              <path d="M130.992,250.301c.84,0,1.508.293,2.004.879s.744,1.357.744,2.314c0,.965-.248,1.742-.744,2.332s-1.164.885-2.004.885-1.513-.294-2.007-.882-.741-1.366-.741-2.335c0-.961.248-1.733.744-2.317s1.164-.876,2.004-.876ZM130.992,255.915c.555,0,.992-.234,1.312-.703s.48-1.037.48-1.705c0-.703-.158-1.281-.475-1.734s-.756-.68-1.318-.68c-.566,0-1.006.224-1.318.671s-.469,1.028-.469,1.743c0,.68.158,1.251.475,1.714s.754.694,1.312.694Z"/>
              <path d="M138.193,250.301c.84,0,1.508.293,2.004.879s.744,1.357.744,2.314c0,.965-.248,1.742-.744,2.332s-1.164.885-2.004.885-1.513-.294-2.007-.882-.741-1.366-.741-2.335c0-.961.248-1.733.744-2.317s1.164-.876,2.004-.876ZM138.193,255.915c.555,0,.992-.234,1.312-.703s.48-1.037.48-1.705c0-.703-.158-1.281-.475-1.734s-.756-.68-1.318-.68c-.566,0-1.006.224-1.318.671s-.469,1.028-.469,1.743c0,.68.158,1.251.475,1.714s.754.694,1.312.694Z"/>
              <path d="M147.738,256.553h-.914v-.879c-.188.301-.456.549-.806.744s-.718.293-1.104.293c-.699,0-1.252-.312-1.658-.935s-.609-1.413-.609-2.37c0-.895.212-1.636.636-2.224s.985-.882,1.685-.882c.77,0,1.389.312,1.857.938v-2.953h.914v8.268ZM146.824,254.684v-2.537c-.438-.703-.965-1.055-1.582-1.055-.504,0-.902.224-1.195.671s-.439,1.013-.439,1.696c0,.703.138,1.284.413,1.743s.653.688,1.134.688c.23,0,.463-.062.697-.188s.455-.312.662-.562.311-.402.311-.457Z"/>
              <path d="M162.474,256.038c-.648.449-1.4.674-2.256.674-1.07,0-1.884-.367-2.44-1.102s-.835-1.797-.835-3.188c0-1.344.27-2.396.809-3.155s1.361-1.14,2.467-1.14c.398,0,.793.051,1.184.152s.705.236.943.404l-.316.756c-.551-.312-1.154-.469-1.811-.469-.762,0-1.328.276-1.699.829s-.557,1.427-.557,2.622c0,2.297.752,3.445,2.256,3.445.637,0,1.289-.195,1.957-.586l.299.756Z"/>
              <path d="M166.998,250.301c.84,0,1.508.293,2.004.879s.744,1.357.744,2.314c0,.965-.248,1.742-.744,2.332s-1.164.885-2.004.885-1.513-.294-2.007-.882-.741-1.366-.741-2.335c0-.961.248-1.733.744-2.317s1.164-.876,2.004-.876ZM166.998,255.915c.555,0,.992-.234,1.312-.703s.48-1.037.48-1.705c0-.703-.158-1.281-.475-1.734s-.756-.68-1.318-.68c-.566,0-1.006.224-1.318.671s-.469,1.028-.469,1.743c0,.68.158,1.251.475,1.714s.754.694,1.312.694Z"/>
              <path d="M174.199,250.301c.84,0,1.508.293,2.004.879s.744,1.357.744,2.314c0,.965-.248,1.742-.744,2.332s-1.164.885-2.004.885-1.513-.294-2.007-.882-.741-1.366-.741-2.335c0-.961.248-1.733.744-2.317s1.164-.876,2.004-.876ZM174.199,255.915c.555,0,.992-.234,1.312-.703s.48-1.037.48-1.705c0-.703-.158-1.281-.475-1.734s-.756-.68-1.318-.68c-.566,0-1.006.224-1.318.671s-.469,1.028-.469,1.743c0,.68.158,1.251.475,1.714s.754.694,1.312.694Z"/>
              <path d="M179.976,251.239c.203-.281.478-.508.823-.68s.71-.258,1.093-.258c.703,0,1.255.29,1.655.87s.601,1.335.601,2.265c0,.938-.21,1.718-.63,2.341s-.985.935-1.696.935c-.379,0-.733-.095-1.063-.284s-.591-.44-.782-.753v3.293h-.914v-8.52h.914v.791ZM179.976,252.147v2.537c.172.344.404.631.697.861s.596.346.908.346c.492,0,.884-.23,1.175-.691s.437-1.033.437-1.717c0-.703-.139-1.277-.416-1.723s-.664-.668-1.16-.668c-.645,0-1.191.352-1.641,1.055Z"/>
            </g>
          </g>
          <path d="M113.046,230.109c.438-1.375,1.105-2.418,2.004-3.129s1.988-1.066,3.27-1.066c1.516,0,2.734.463,3.656,1.389s1.383,2.15,1.383,3.674c0,1.336-.32,2.41-.961,3.223s-1.871,1.602-3.691,2.367l-.234.105c-2.984,1.258-4.793,2.664-5.426,4.219-.648-1.562-2.453-2.969-5.414-4.219-.109-.047-.195-.082-.258-.105-1.828-.766-3.061-1.551-3.697-2.355s-.955-1.883-.955-3.234c0-1.523.463-2.748,1.389-3.674s2.143-1.389,3.65-1.389c1.289,0,2.381.355,3.275,1.066s1.564,1.754,2.01,3.129Z" fill="#ed1c24"/>
        </g>
      </g>
    </g>
  </g>
<style>
#g-peanut-butter-map-Artboard_1-Interaction2-img rect, #g-peanut-butter-map-Artboard_1-Interaction2-img circle, #g-peanut-butter-map-Artboard_1-Interaction2-img path, #g-peanut-butter-map-Artboard_1-Interaction2-img line, #g-peanut-butter-map-Artboard_1-Interaction2-img polyline, #g-peanut-butter-map-Artboard_1-Interaction2-img polygon { vector-effect: non-scaling-stroke; }
</style>
</svg>
