<?xml version="1.0" encoding="UTF-8"?>
<svg xmlns="http://www.w3.org/2000/svg" baseProfile="tiny" version="1.2" viewBox="0 0 650 650">
  <!-- Generator: Adobe Illustrator 28.6.0, SVG Export Plug-In . SVG Version: 1.2.0 Build 709)  -->
  <g>
    <g id="g-peanut-butter-map-Artboard_1-interaction1-img">
      <g id="good">
        <g id="good-2" data-name="good">
          <g>
            <rect x="482.8" y="474.504" width="138.902" height="20.574" fill="#fff"/>
            <g>
              <path d="M493.319,480.659h-3.422v2.701h3.117v.838h-3.117v3.891h-.961v-8.268h4.383v.838Z"/>
              <path d="M500.755,488.089h-.908c-.074-.246-.111-.574-.111-.984-.52.762-1.227,1.143-2.121,1.143-.453,0-.853-.161-1.198-.483s-.519-.737-.519-1.245c0-.301.061-.566.182-.797s.299-.425.533-.583.52-.283.855-.375.734-.155,1.195-.19l1.025-.082v-.293c0-1.047-.488-1.57-1.465-1.57-.23,0-.522.05-.876.149s-.657.218-.911.354l-.24-.656c.832-.426,1.605-.639,2.32-.639,1.391,0,2.086.736,2.086,2.209v2.625c0,.531.051,1.004.152,1.418ZM499.688,486.278v-1.107c-.824.074-1.39.144-1.696.208s-.572.185-.797.36-.337.414-.337.715c0,.273.096.494.287.662s.436.252.732.252c.324,0,.646-.097.967-.29s.602-.46.844-.8Z"/>
              <path d="M508.284,488.089h-.914v-4.008c0-.969-.18-1.453-.539-1.453-.184,0-.386.167-.606.501s-.331.519-.331.554v4.406h-.908v-4.008c0-.969-.182-1.453-.545-1.453-.18,0-.38.167-.601.501s-.331.519-.331.554v4.406h-.914v-6.105h.879v.92c.172-.324.376-.583.612-.776s.472-.29.706-.29c.246,0,.467.097.662.29s.33.452.404.776c.172-.324.377-.583.615-.776s.473-.29.703-.29c.738,0,1.107.66,1.107,1.98v4.271Z"/>
              <path d="M513.481,488.089h-.914v-5.314h-1.799v-.791h2.713v6.105ZM513.036,479.675c.172,0,.318.062.439.185s.182.271.182.442c0,.18-.06.33-.179.451s-.267.182-.442.182c-.16,0-.302-.063-.425-.19s-.185-.274-.185-.442.062-.314.185-.439.265-.188.425-.188Z"/>
              <path d="M521.761,488.089h-2.496v-7.477h-1.594v-.791h2.508v7.477h1.582v.791Z"/>
              <path d="M529.683,481.983l-2.314,6.105c-.336.898-.669,1.525-.999,1.881s-.706.533-1.128.533c-.375,0-.746-.068-1.113-.205l.152-.732c.297.094.562.141.797.141.328,0,.598-.127.809-.381s.424-.67.639-1.248l-2.291-6.094h.996l1.729,4.869,1.729-4.869h.996Z"/>
              <path d="M543.206,480.735c-.492-.168-.959-.252-1.4-.252-.5,0-.907.114-1.222.343s-.472.554-.472.976c0,.5.412.939,1.236,1.318.609.281,1.013.477,1.21.586s.397.26.601.451.366.417.489.677.185.552.185.876c0,.805-.271,1.429-.812,1.872-.541.443-1.179.665-1.913.665-.711,0-1.334-.141-1.869-.422l.199-.826c.629.285,1.178.428,1.646.428.547,0,.985-.142,1.315-.425s.495-.673.495-1.169c0-.367-.107-.679-.322-.935s-.611-.517-1.189-.782c-.594-.273-.978-.46-1.151-.56s-.347-.237-.519-.413-.305-.373-.398-.592-.141-.457-.141-.715c0-.684.246-1.217.738-1.6s1.115-.574,1.869-.574c.551,0,1.098.084,1.641.252l-.217.82Z"/>
              <path d="M550.999,488.089h-.914v-.902c-.656.699-1.348,1.049-2.074,1.049-1.145,0-1.717-.693-1.717-2.08v-4.172h.914v3.908c0,.52.082.907.246,1.163s.441.384.832.384c.559,0,1.158-.348,1.799-1.043v-4.412h.914v6.105Z"/>
              <path d="M554.421,482.774c.203-.281.478-.508.823-.68s.71-.258,1.093-.258c.703,0,1.255.29,1.655.87s.601,1.335.601,2.265c0,.938-.21,1.718-.63,2.341-.42.623-.985.935-1.696.935-.379,0-.733-.095-1.063-.284s-.591-.44-.782-.753v3.293h-.914v-8.52h.914v.791ZM554.421,483.683v2.537c.172.344.404.631.697.861s.596.346.908.346c.492,0,.884-.23,1.175-.691s.437-1.033.437-1.717c0-.703-.139-1.277-.416-1.723s-.664-.668-1.16-.668c-.645,0-1.191.352-1.641,1.055Z"/>
              <path d="M565.595,485.065h-4.189c0,.691.2,1.262.601,1.711s.892.674,1.474.674c.555,0,1.127-.1,1.717-.299l.158.732c-.539.242-1.168.363-1.887.363-.906,0-1.637-.291-2.191-.873s-.832-1.367-.832-2.355c0-.969.249-1.741.747-2.317s1.142-.864,1.931-.864c.703,0,1.291.268,1.764.803s.709,1.248.709,2.139v.287ZM564.599,484.321c0-.477-.148-.878-.445-1.204s-.629-.489-.996-.489c-.473,0-.864.156-1.175.469s-.483.721-.519,1.225h3.135Z"/>
              <path d="M572.708,482.147l-.369.879c-.402-.176-.75-.264-1.043-.264-.27,0-.533.077-.791.231s-.495.375-.712.662-.325.448-.325.483v3.949h-.908v-6.105h.908v1.236c.488-.922,1.121-1.383,1.898-1.383.461,0,.908.104,1.342.311Z"/>
              <path d="M580.296,488.089h-.914v-4.008c0-.969-.18-1.453-.539-1.453-.184,0-.386.167-.606.501s-.331.519-.331.554v4.406h-.908v-4.008c0-.969-.182-1.453-.545-1.453-.18,0-.38.167-.601.501s-.331.519-.331.554v4.406h-.914v-6.105h.879v.92c.172-.324.376-.583.612-.776s.472-.29.706-.29c.246,0,.467.097.662.29s.33.452.404.776c.172-.324.377-.583.615-.776s.473-.29.703-.29c.738,0,1.107.66,1.107,1.98v4.271Z"/>
              <path d="M587.169,488.089h-.908c-.074-.246-.111-.574-.111-.984-.52.762-1.227,1.143-2.121,1.143-.453,0-.853-.161-1.198-.483s-.519-.737-.519-1.245c0-.301.061-.566.182-.797s.299-.425.533-.583.52-.283.855-.375.734-.155,1.195-.19l1.025-.082v-.293c0-1.047-.488-1.57-1.465-1.57-.23,0-.522.05-.876.149s-.657.218-.911.354l-.24-.656c.832-.426,1.605-.639,2.32-.639,1.391,0,2.086.736,2.086,2.209v2.625c0,.531.051,1.004.152,1.418ZM586.103,486.278v-1.107c-.824.074-1.39.144-1.696.208s-.572.185-.797.36-.337.414-.337.715c0,.273.096.494.287.662s.436.252.732.252c.324,0,.646-.097.967-.29s.602-.46.844-.8Z"/>
              <path d="M594.312,482.147l-.369.879c-.402-.176-.75-.264-1.043-.264-.27,0-.533.077-.791.231s-.495.375-.712.662-.325.448-.325.483v3.949h-.908v-6.105h.908v1.236c.488-.922,1.121-1.383,1.898-1.383.461,0,.908.104,1.342.311Z"/>
              <path d="M602.017,488.089h-1.201l-2.59-3.035-.598.516v2.52h-.914v-8.268h.914v4.74l2.865-2.578h1.166l-2.783,2.496,3.141,3.609Z"/>
              <path d="M608.802,485.065h-4.189c0,.691.2,1.262.601,1.711.4.449.892.674,1.474.674.555,0,1.127-.1,1.717-.299l.158.732c-.539.242-1.168.363-1.887.363-.906,0-1.637-.291-2.191-.873s-.832-1.367-.832-2.355c0-.969.249-1.741.747-2.317s1.142-.864,1.931-.864c.703,0,1.291.268,1.764.803s.709,1.248.709,2.139v.287ZM607.806,484.321c0-.477-.148-.878-.445-1.204s-.629-.489-.996-.489c-.473,0-.864.156-1.175.469s-.483.721-.519,1.225h3.135Z"/>
              <path d="M615.88,487.813c-.613.281-1.217.422-1.811.422-1.09,0-1.635-.576-1.635-1.729v-3.732h-1.172v-.791h1.172v-1.67h.891v1.67h2.074v.791h-2.074v3.492c0,.371.082.659.246.864s.387.308.668.308c.5,0,.994-.111,1.482-.334l.158.709Z"/>
            </g>
          </g>
          <path d="M470.022,482.094c.328-1.031.829-1.813,1.503-2.347s1.491-.8,2.452-.8c1.137,0,2.051.347,2.742,1.042.691.693,1.037,1.612,1.037,2.755,0,1.002-.24,1.808-.721,2.417s-1.403,1.201-2.769,1.775l-.176.079c-2.238.943-3.595,1.998-4.069,3.164-.486-1.172-1.84-2.227-4.061-3.164-.082-.035-.146-.062-.193-.079-1.371-.574-2.296-1.163-2.773-1.767s-.716-1.412-.716-2.426c0-1.143.347-2.062,1.041-2.755.694-.695,1.607-1.042,2.738-1.042.967,0,1.785.267,2.456.8s1.174,1.315,1.508,2.347Z"/>
        </g>
        <g id="good-3" data-name="good">
          <rect x="437.765" y="298.292" width="115.924" height="20.574" fill="#fff"/>
          <g>
            <path d="M447.78,305.263c-.492-.168-.959-.252-1.4-.252-.5,0-.907.114-1.222.343s-.472.554-.472.976c0,.5.412.939,1.236,1.318.609.281,1.013.477,1.21.586s.397.26.601.451.366.417.489.677.185.552.185.876c0,.805-.271,1.429-.812,1.872s-1.179.665-1.913.665c-.711,0-1.334-.141-1.869-.422l.199-.826c.629.285,1.178.428,1.646.428.547,0,.985-.142,1.315-.425.33-.283.495-.673.495-1.169,0-.367-.107-.679-.322-.935s-.611-.517-1.189-.782c-.594-.273-.978-.46-1.151-.56s-.347-.237-.519-.413-.305-.373-.398-.592-.141-.457-.141-.715c0-.684.246-1.217.738-1.6s1.115-.574,1.869-.574c.551,0,1.098.084,1.641.252l-.217.82Z"/>
            <path d="M454.694,310.419c0,.758-.198,1.34-.595,1.746s-.978.609-1.743.609c-.668,0-1.275-.141-1.822-.422l.287-.768c.465.23.977.346,1.535.346.484,0,.835-.128,1.052-.384s.325-.655.325-1.198v-6h.961v6.07Z"/>
            <path d="M470.286,312.03c-.676.496-1.424.744-2.244.744-1.074,0-1.889-.364-2.443-1.093s-.832-1.794-.832-3.196c0-1.355.269-2.41.806-3.164s1.36-1.131,2.47-1.131c.398,0,.793.051,1.184.152s.705.236.943.404l-.316.756c-.551-.312-1.154-.469-1.811-.469-.758,0-1.323.277-1.696.832s-.56,1.428-.56,2.619c0,2.297.752,3.445,2.256,3.445.566,0,.994-.119,1.283-.357v-2.039h-1.488v-.832h2.449v3.328Z"/>
            <path d="M477.282,306.675l-.369.879c-.402-.176-.75-.264-1.043-.264-.27,0-.533.077-.791.231s-.495.375-.712.662-.325.448-.325.483v3.949h-.908v-6.105h.908v1.236c.488-.922,1.121-1.383,1.898-1.383.461,0,.908.104,1.342.311Z"/>
            <path d="M484.571,309.593h-4.189c0,.691.2,1.262.601,1.711s.892.674,1.474.674c.555,0,1.127-.1,1.717-.299l.158.732c-.539.242-1.168.363-1.887.363-.906,0-1.637-.291-2.191-.873s-.832-1.367-.832-2.355c0-.969.249-1.741.747-2.317s1.142-.864,1.931-.864c.703,0,1.291.268,1.764.803s.709,1.248.709,2.139v.287ZM483.575,308.849c0-.477-.148-.878-.445-1.204s-.629-.489-.996-.489c-.473,0-.864.156-1.175.469s-.483.721-.519,1.225h3.135Z"/>
            <path d="M491.772,309.593h-4.189c0,.691.2,1.262.601,1.711s.892.674,1.474.674c.555,0,1.127-.1,1.717-.299l.158.732c-.539.242-1.168.363-1.887.363-.906,0-1.637-.291-2.191-.873s-.832-1.367-.832-2.355c0-.969.249-1.741.747-2.317s1.142-.864,1.931-.864c.703,0,1.291.268,1.764.803s.709,1.248.709,2.139v.287ZM490.776,308.849c0-.477-.148-.878-.445-1.204s-.629-.489-.996-.489c-.473,0-.864.156-1.175.469s-.483.721-.519,1.225h3.135Z"/>
            <path d="M498.792,312.616h-.914v-3.914c0-.543-.087-.937-.261-1.181s-.446-.366-.817-.366c-.559,0-1.158.348-1.799,1.043v4.418h-.914v-6.105h.914v.896c.656-.695,1.348-1.043,2.074-1.043,1.145,0,1.717.691,1.717,2.074v4.178Z"/>
            <path d="M513.493,312.616h-.926v-7.09l-1.248,3.393h-.908l-1.248-3.393v7.09h-.926v-8.268h1.248l1.383,3.768,1.377-3.768h1.248v8.268Z"/>
            <path d="M520.548,312.616h-.908c-.074-.246-.111-.574-.111-.984-.52.762-1.227,1.143-2.121,1.143-.453,0-.853-.161-1.198-.483s-.519-.737-.519-1.245c0-.301.061-.566.182-.797s.299-.425.533-.583.52-.283.855-.375.734-.155,1.195-.19l1.025-.082v-.293c0-1.047-.488-1.57-1.465-1.57-.23,0-.522.05-.876.149s-.657.218-.911.354l-.24-.656c.832-.426,1.605-.639,2.32-.639,1.391,0,2.086.736,2.086,2.209v2.625c0,.531.051,1.004.152,1.418ZM519.481,310.806v-1.107c-.824.074-1.39.144-1.696.208s-.572.185-.797.36-.337.414-.337.715c0,.273.096.494.287.662s.436.252.732.252c.324,0,.646-.097.967-.29s.602-.46.844-.8Z"/>
            <path d="M527.69,306.675l-.369.879c-.402-.176-.75-.264-1.043-.264-.27,0-.533.077-.791.231s-.495.375-.712.662-.325.448-.325.483v3.949h-.908v-6.105h.908v1.236c.488-.922,1.121-1.383,1.898-1.383.461,0,.908.104,1.342.311Z"/>
            <path d="M535.396,312.616h-1.201l-2.59-3.035-.598.516v2.52h-.914v-8.268h.914v4.74l2.865-2.578h1.166l-2.783,2.496,3.141,3.609Z"/>
            <path d="M542.181,309.593h-4.189c0,.691.2,1.262.601,1.711s.892.674,1.474.674c.555,0,1.127-.1,1.717-.299l.158.732c-.539.242-1.168.363-1.887.363-.906,0-1.637-.291-2.191-.873s-.832-1.367-.832-2.355c0-.969.249-1.741.747-2.317s1.142-.864,1.931-.864c.703,0,1.291.268,1.764.803s.709,1.248.709,2.139v.287ZM541.185,308.849c0-.477-.148-.878-.445-1.204s-.629-.489-.996-.489c-.473,0-.864.156-1.175.469s-.483.721-.519,1.225h3.135Z"/>
            <path d="M549.259,312.341c-.613.281-1.217.422-1.811.422-1.09,0-1.635-.576-1.635-1.729v-3.732h-1.172v-.791h1.172v-1.67h.891v1.67h2.074v.791h-2.074v3.492c0,.371.082.659.246.864s.387.308.668.308c.5,0,.994-.111,1.482-.334l.158.709Z"/>
          </g>
          <path d="M565.733,306.552c.328-1.031.829-1.813,1.503-2.347.674-.533,1.491-.8,2.452-.8,1.137,0,2.051.347,2.742,1.042.691.693,1.037,1.612,1.037,2.755,0,1.002-.24,1.808-.721,2.417s-1.403,1.201-2.769,1.775l-.176.079c-2.238.943-3.595,1.998-4.069,3.164-.486-1.172-1.84-2.227-4.061-3.164-.082-.035-.146-.062-.193-.079-1.371-.574-2.296-1.163-2.772-1.767-.479-.604-.717-1.412-.717-2.426,0-1.143.348-2.062,1.041-2.755s1.607-1.042,2.738-1.042c.967,0,1.785.267,2.457.8.67.533,1.173,1.315,1.507,2.347Z"/>
        </g>
        <g id="good-4" data-name="good">
          <path d="M424.733,221.303c.328-1.031.829-1.813,1.503-2.347.674-.533,1.491-.8,2.452-.8,1.137,0,2.051.347,2.742,1.042.691.693,1.037,1.612,1.037,2.755,0,1.002-.24,1.808-.721,2.417s-1.403,1.201-2.769,1.775l-.176.079c-2.238.943-3.595,1.998-4.069,3.164-.486-1.172-1.84-2.227-4.061-3.164-.082-.035-.146-.062-.193-.079-1.371-.574-2.295-1.163-2.772-1.767s-.717-1.412-.717-2.426c0-1.143.348-2.062,1.042-2.755.694-.695,1.606-1.042,2.737-1.042.967,0,1.786.267,2.457.8s1.173,1.315,1.507,2.347Z"/>
          <g>
            <rect x="304.313" y="212.379" width="109.442" height="20.574" fill="#fff"/>
            <g>
              <path d="M313.886,225.872c-.648.449-1.4.674-2.256.674-1.07,0-1.884-.367-2.44-1.102s-.835-1.797-.835-3.188c0-1.344.27-2.396.809-3.155s1.361-1.14,2.467-1.14c.398,0,.793.051,1.184.152s.705.236.943.404l-.316.756c-.551-.312-1.154-.469-1.811-.469-.762,0-1.328.276-1.699.829-.371.553-.557,1.427-.557,2.622,0,2.297.752,3.445,2.256,3.445.637,0,1.289-.195,1.957-.586l.299.756Z"/>
              <path d="M320.958,223.364h-4.189c0,.691.2,1.262.601,1.711s.892.674,1.474.674c.555,0,1.127-.1,1.717-.299l.158.732c-.539.242-1.168.363-1.887.363-.906,0-1.637-.291-2.191-.873s-.832-1.367-.832-2.355c0-.969.249-1.741.747-2.317s1.142-.864,1.931-.864c.703,0,1.291.268,1.764.803s.709,1.248.709,2.139v.287ZM319.962,222.62c0-.477-.148-.878-.445-1.204s-.629-.489-.996-.489c-.473,0-.864.156-1.175.469s-.483.721-.519,1.225h3.135Z"/>
              <path d="M324.187,221.073c.203-.281.478-.508.823-.68s.71-.258,1.092-.258c.703,0,1.255.29,1.655.87s.601,1.335.601,2.265c0,.938-.21,1.718-.63,2.341s-.985.935-1.696.935c-.378,0-.733-.095-1.063-.284s-.591-.44-.782-.753v3.293h-.914v-8.52h.914v.791ZM324.187,221.981v2.537c.172.344.404.631.697.861s.596.346.908.346c.492,0,.883-.23,1.174-.691s.437-1.033.437-1.717c0-.703-.139-1.277-.416-1.723s-.664-.668-1.16-.668c-.645,0-1.191.352-1.641,1.055Z"/>
              <path d="M335.36,223.364h-4.189c0,.691.2,1.262.601,1.711s.892.674,1.474.674c.555,0,1.127-.1,1.717-.299l.158.732c-.539.242-1.168.363-1.887.363-.906,0-1.637-.291-2.191-.873s-.832-1.367-.832-2.355c0-.969.249-1.741.747-2.317s1.142-.864,1.931-.864c.703,0,1.291.268,1.764.803s.709,1.248.709,2.139v.287ZM334.364,222.62c0-.477-.148-.878-.445-1.204s-.629-.489-.996-.489c-.473,0-.864.156-1.175.469-.311.312-.483.721-.519,1.225h3.135Z"/>
              <path d="M342.356,226.388h-.914v-.879c-.188.301-.456.549-.806.744s-.718.293-1.104.293c-.699,0-1.252-.312-1.658-.935s-.609-1.413-.609-2.37c0-.895.212-1.636.636-2.224s.985-.882,1.685-.882c.77,0,1.389.312,1.857.938v-2.953h.914v8.268ZM341.442,224.519v-2.537c-.438-.703-.965-1.055-1.582-1.055-.504,0-.902.224-1.195.671s-.439,1.013-.439,1.696c0,.703.138,1.284.413,1.743s.653.688,1.134.688c.23,0,.463-.062.697-.188s.455-.312.662-.562.311-.402.311-.457Z"/>
              <path d="M349.733,226.388h-.908c-.074-.246-.111-.574-.111-.984-.52.762-1.227,1.143-2.121,1.143-.453,0-.853-.161-1.198-.483-.346-.322-.519-.737-.519-1.245,0-.301.061-.566.182-.797s.299-.425.533-.583c.234-.158.52-.283.855-.375.336-.092.734-.155,1.195-.19l1.025-.082v-.293c0-1.047-.488-1.57-1.465-1.57-.23,0-.522.05-.876.149s-.657.218-.911.354l-.24-.656c.832-.426,1.605-.639,2.32-.639,1.391,0,2.086.736,2.086,2.209v2.625c0,.531.051,1.004.152,1.418ZM348.667,224.577v-1.107c-.824.074-1.39.144-1.696.208s-.572.185-.797.36-.337.414-.337.715c0,.273.096.494.287.662s.436.252.732.252c.324,0,.646-.097.967-.29s.602-.46.844-.8Z"/>
              <path d="M364.282,225.802c-.676.496-1.424.744-2.244.744-1.074,0-1.889-.364-2.443-1.093s-.832-1.794-.832-3.196c0-1.355.269-2.41.806-3.164s1.36-1.131,2.47-1.131c.398,0,.793.051,1.184.152s.705.236.943.404l-.316.756c-.551-.312-1.154-.469-1.811-.469-.758,0-1.323.277-1.696.832s-.56,1.428-.56,2.619c0,2.297.752,3.445,2.256,3.445.566,0,.994-.119,1.283-.357v-2.039h-1.488v-.832h2.449v3.328Z"/>
              <path d="M371.278,220.446l-.369.879c-.402-.176-.75-.264-1.043-.264-.27,0-.533.077-.791.231s-.495.375-.712.662-.325.448-.325.483v3.949h-.908v-6.105h.908v1.236c.488-.922,1.121-1.383,1.898-1.383.461,0,.908.104,1.342.311Z"/>
              <path d="M376.019,220.136c.84,0,1.508.293,2.004.879s.744,1.357.744,2.314c0,.965-.248,1.742-.744,2.332s-1.164.885-2.004.885-1.513-.294-2.007-.882-.741-1.366-.741-2.335c0-.961.248-1.733.744-2.317s1.164-.876,2.004-.876ZM376.019,225.749c.555,0,.992-.234,1.312-.703s.48-1.037.48-1.705c0-.703-.158-1.281-.475-1.734s-.756-.68-1.318-.68c-.566,0-1.006.224-1.318.671s-.469,1.028-.469,1.743c0,.68.158,1.251.475,1.714s.754.694,1.312.694Z"/>
              <path d="M385.563,226.183c-.531.242-1.115.363-1.752.363-.961,0-1.728-.292-2.3-.876s-.858-1.36-.858-2.329.288-1.745.864-2.329,1.333-.876,2.271-.876c.613,0,1.197.107,1.752.322l-.24.756c-.555-.191-1.055-.287-1.5-.287-.672,0-1.204.217-1.597.65s-.589,1.021-.589,1.764c0,.68.203,1.251.609,1.714s.936.694,1.588.694c.516,0,1.047-.1,1.594-.299l.158.732Z"/>
              <path d="M392.97,223.364h-4.189c0,.691.2,1.262.601,1.711s.892.674,1.474.674c.555,0,1.127-.1,1.717-.299l.158.732c-.539.242-1.168.363-1.887.363-.906,0-1.637-.291-2.191-.873s-.832-1.367-.832-2.355c0-.969.249-1.741.747-2.317s1.142-.864,1.931-.864c.703,0,1.291.268,1.764.803s.709,1.248.709,2.139v.287ZM391.974,222.62c0-.477-.148-.878-.445-1.204s-.629-.489-.996-.489c-.473,0-.864.156-1.175.469s-.483.721-.519,1.225h3.135Z"/>
              <path d="M400.083,220.446l-.369.879c-.402-.176-.75-.264-1.043-.264-.27,0-.533.077-.791.231s-.495.375-.712.662-.325.448-.325.483v3.949h-.908v-6.105h.908v1.236c.488-.922,1.121-1.383,1.898-1.383.461,0,.908.104,1.342.311Z"/>
              <path d="M407.466,220.282l-2.314,6.105c-.336.898-.669,1.525-.999,1.881s-.706.533-1.128.533c-.375,0-.746-.068-1.113-.205l.152-.732c.297.094.562.141.797.141.328,0,.598-.127.809-.381s.424-.67.639-1.248l-2.291-6.094h.996l1.729,4.869,1.729-4.869h.996Z"/>
            </g>
          </g>
        </g>
        <g id="good-5" data-name="good">
          <path d="M188.331,173.396c.328-1.031.829-1.813,1.503-2.347s1.491-.8,2.452-.8c1.137,0,2.051.347,2.742,1.042.691.693,1.037,1.612,1.037,2.755,0,1.002-.24,1.808-.721,2.417s-1.403,1.201-2.769,1.775l-.176.079c-2.238.943-3.595,1.998-4.069,3.164-.486-1.172-1.84-2.227-4.061-3.164-.082-.035-.146-.062-.193-.079-1.371-.574-2.295-1.163-2.773-1.767s-.716-1.412-.716-2.426c0-1.143.347-2.062,1.042-2.755.694-.695,1.607-1.042,2.738-1.042.967,0,1.786.267,2.457.8s1.173,1.315,1.507,2.347Z"/>
          <g>
            <rect x="51.33" y="163.588" width="126.542" height="20.574" fill="#fff"/>
            <g>
              <path d="M56.48,170.131h1.629c1.082,0,1.949.368,2.602,1.104s.979,1.747.979,3.032c0,1.312-.331,2.329-.993,3.05s-1.511,1.081-2.546,1.081h-1.67v-8.268ZM57.441,177.561h.68c.785,0,1.406-.291,1.863-.873.457-.582.686-1.389.686-2.42,0-1.023-.229-1.829-.688-2.417s-1.079-.882-1.86-.882h-.68v6.592Z"/>
              <path d="M68.55,178.398h-1.066l-2.965-6.527v6.527h-.961v-8.268h1.072l2.977,6.469v-6.469h.943v8.268Z"/>
              <path d="M76.332,170.131l-2.584,4.729v3.539h-.955v-3.539l-2.584-4.729h1.084l1.975,3.721,1.98-3.721h1.084Z"/>
              <path d="M90.154,178.398h-1.066l-2.965-6.527v6.527h-.961v-8.268h1.072l2.977,6.469v-6.469h.943v8.268Z"/>
              <path d="M97.378,178.398h-.908c-.074-.246-.111-.574-.111-.984-.52.762-1.227,1.143-2.121,1.143-.453,0-.853-.161-1.198-.483s-.519-.737-.519-1.245c0-.301.061-.566.182-.797s.299-.425.533-.583.52-.283.855-.375.734-.155,1.195-.19l1.025-.082v-.293c0-1.047-.488-1.57-1.465-1.57-.23,0-.522.05-.876.149s-.657.218-.911.354l-.24-.656c.832-.426,1.605-.639,2.32-.639,1.391,0,2.086.736,2.086,2.209v2.625c0,.531.051,1.004.152,1.418ZM96.312,176.588v-1.107c-.824.074-1.39.144-1.696.208s-.572.185-.797.36-.337.414-.337.715c0,.273.096.494.287.662s.436.252.732.252c.324,0,.646-.097.967-.29s.602-.46.844-.8Z"/>
              <path d="M104.486,178.123c-.613.281-1.217.422-1.811.422-1.09,0-1.635-.576-1.635-1.729v-3.732h-1.172v-.791h1.172v-1.67h.891v1.67h2.074v.791h-2.074v3.492c0,.371.082.659.246.864s.387.308.668.308c.5,0,.994-.111,1.482-.334l.158.709Z"/>
              <path d="M111.617,178.398h-.914v-.902c-.656.699-1.348,1.049-2.074,1.049-1.145,0-1.717-.693-1.717-2.08v-4.172h.914v3.908c0,.52.082.907.246,1.163s.441.384.832.384c.559,0,1.158-.348,1.799-1.043v-4.412h.914v6.105Z"/>
              <path d="M118.923,172.457l-.369.879c-.402-.176-.75-.264-1.043-.264-.27,0-.533.077-.791.231s-.495.375-.712.662-.325.448-.325.483v3.949h-.908v-6.105h.908v1.236c.488-.922,1.121-1.383,1.898-1.383.461,0,.908.104,1.342.311Z"/>
              <path d="M126.183,178.398h-.908c-.074-.246-.111-.574-.111-.984-.52.762-1.227,1.143-2.121,1.143-.453,0-.853-.161-1.198-.483s-.519-.737-.519-1.245c0-.301.061-.566.182-.797s.299-.425.533-.583.52-.283.855-.375.734-.155,1.195-.19l1.025-.082v-.293c0-1.047-.488-1.57-1.465-1.57-.23,0-.522.05-.876.149s-.657.218-.911.354l-.24-.656c.832-.426,1.605-.639,2.32-.639,1.391,0,2.086.736,2.086,2.209v2.625c0,.531.051,1.004.152,1.418ZM125.117,176.588v-1.107c-.824.074-1.39.144-1.696.208s-.572.185-.797.36-.337.414-.337.715c0,.273.096.494.287.662s.436.252.732.252c.324,0,.646-.097.967-.29s.602-.46.844-.8Z"/>
              <path d="M132.787,178.398h-2.496v-7.477h-1.594v-.791h2.508v7.477h1.582v.791Z"/>
              <path d="M147.669,178.398h-4.5v-8.268h.961v7.43h3.539v.838Z"/>
              <path d="M154.988,178.398h-.908c-.074-.246-.111-.574-.111-.984-.52.762-1.227,1.143-2.121,1.143-.453,0-.853-.161-1.198-.483s-.519-.737-.519-1.245c0-.301.061-.566.182-.797s.299-.425.533-.583.52-.283.855-.375.734-.155,1.195-.19l1.025-.082v-.293c0-1.047-.488-1.57-1.465-1.57-.23,0-.522.05-.876.149s-.657.218-.911.354l-.24-.656c.832-.426,1.605-.639,2.32-.639,1.391,0,2.086.736,2.086,2.209v2.625c0,.531.051,1.004.152,1.418ZM153.921,176.588v-1.107c-.824.074-1.39.144-1.696.208s-.572.185-.797.36-.337.414-.337.715c0,.273.096.494.287.662s.436.252.732.252c.324,0,.646-.097.967-.29s.602-.46.844-.8Z"/>
              <path d="M162.037,178.398h-.914v-3.914c0-.543-.087-.937-.261-1.181s-.446-.366-.817-.366c-.559,0-1.158.348-1.799,1.043v4.418h-.914v-6.105h.914v.896c.656-.695,1.348-1.043,2.074-1.043,1.145,0,1.717.691,1.717,2.074v4.178Z"/>
              <path d="M169.214,178.398h-.914v-.879c-.188.301-.456.549-.806.744s-.718.293-1.104.293c-.699,0-1.252-.312-1.658-.935s-.609-1.413-.609-2.37c0-.895.212-1.636.636-2.224s.985-.882,1.685-.882c.77,0,1.389.312,1.857.938v-2.953h.914v8.268ZM168.3,176.529v-2.537c-.438-.703-.965-1.055-1.582-1.055-.504,0-.902.224-1.195.671s-.439,1.013-.439,1.696c0,.703.138,1.284.413,1.743s.653.688,1.134.688c.23,0,.463-.062.697-.188s.455-.312.662-.562.311-.402.311-.457Z"/>
            </g>
          </g>
        </g>
        <g id="good-6" data-name="good">
          <g>
            <rect x="354.487" y="235.202" width="166.677" height="20.574" fill="#fff"/>
            <g>
              <path d="M363.263,241.942c-.492-.168-.959-.252-1.4-.252-.5,0-.907.114-1.222.343s-.472.554-.472.976c0,.5.412.939,1.236,1.318.609.281,1.013.477,1.21.586.197.109.397.26.601.451s.366.417.489.677.185.552.185.876c0,.805-.271,1.429-.812,1.872s-1.179.665-1.913.665c-.711,0-1.334-.141-1.869-.422l.199-.826c.629.285,1.178.428,1.646.428.547,0,.985-.142,1.315-.425s.495-.673.495-1.169c0-.367-.107-.679-.322-.935s-.611-.517-1.189-.782c-.594-.273-.978-.46-1.151-.56s-.347-.237-.519-.413-.305-.373-.398-.592-.141-.457-.141-.715c0-.684.246-1.217.738-1.6s1.115-.574,1.869-.574c.551,0,1.098.084,1.641.252l-.217.82Z"/>
              <path d="M371.126,249.02c-.613.281-1.217.422-1.811.422-1.09,0-1.635-.576-1.635-1.729v-3.732h-1.172v-.791h1.172v-1.67h.891v1.67h2.074v.791h-2.074v3.492c0,.371.082.659.246.864s.387.308.668.308c.5,0,.994-.111,1.482-.334l.158.709Z"/>
              <path d="M384.579,247.099c0,.758-.198,1.34-.595,1.746s-.978.609-1.743.609c-.668,0-1.275-.141-1.822-.422l.287-.768c.465.23.977.346,1.535.346.484,0,.835-.128,1.052-.384s.325-.655.325-1.198v-6h.961v6.07Z"/>
              <path d="M390.304,243.044c.84,0,1.508.293,2.004.879s.744,1.357.744,2.314c0,.965-.248,1.742-.744,2.332s-1.164.885-2.004.885-1.513-.294-2.007-.882-.741-1.366-.741-2.335c0-.961.248-1.733.744-2.317s1.164-.876,2.004-.876ZM390.304,248.657c.555,0,.992-.234,1.312-.703s.48-1.037.48-1.705c0-.703-.158-1.281-.475-1.734s-.756-.68-1.318-.68c-.566,0-1.006.224-1.318.671s-.469,1.028-.469,1.743c0,.68.158,1.251.475,1.714s.754.694,1.312.694Z"/>
              <path d="M399.872,249.296h-.914v-3.914c0-.543-.087-.937-.261-1.181s-.446-.366-.817-.366c-.559,0-1.158.348-1.799,1.043v4.418h-.914v-8.268h.914v3.059c.656-.695,1.348-1.043,2.074-1.043,1.145,0,1.717.691,1.717,2.074v4.178Z"/>
              <path d="M407.073,249.296h-.914v-3.914c0-.543-.087-.937-.261-1.181s-.446-.366-.817-.366c-.559,0-1.158.348-1.799,1.043v4.418h-.914v-6.105h.914v.896c.656-.695,1.348-1.043,2.074-1.043,1.145,0,1.717.691,1.717,2.074v4.178Z"/>
              <path d="M411.825,242.323c-.207-.023-.377-.106-.51-.249s-.199-.308-.199-.495c0-.199.065-.367.196-.504.131-.137.294-.205.489-.205.219,0,.407.089.565.267s.237.394.237.647c0,.762-.424,1.357-1.271,1.787l-.229-.422c.48-.234.721-.51.721-.826Z"/>
              <path d="M420.837,244.063c-.512-.168-.994-.252-1.447-.252-.496,0-.889.083-1.178.249s-.434.388-.434.665c0,.176.066.329.199.46s.398.253.797.366l.873.252c.402.113.73.249.984.407s.444.35.571.574.19.485.19.782c0,.582-.244,1.042-.732,1.38s-1.109.507-1.863.507c-.75,0-1.369-.113-1.857-.34l.176-.791c.512.242,1.061.363,1.646.363.508,0,.921-.095,1.239-.284s.478-.44.478-.753c0-.211-.079-.399-.237-.565s-.53-.339-1.116-.519c-.473-.145-.82-.253-1.043-.325-.223-.072-.43-.179-.621-.319s-.337-.309-.437-.504-.149-.414-.149-.656c0-.527.23-.945.691-1.254s1.072-.463,1.834-.463c.492,0,1.039.084,1.641.252l-.205.768Z"/>
              <path d="M436.007,249.296h-1.066l-2.965-6.527v6.527h-.961v-8.268h1.072l2.977,6.469v-6.469h.943v8.268Z"/>
              <path d="M443.231,249.296h-.908c-.074-.246-.111-.574-.111-.984-.52.762-1.227,1.143-2.121,1.143-.453,0-.853-.161-1.198-.483s-.519-.737-.519-1.245c0-.301.061-.566.182-.797s.299-.425.533-.583c.234-.158.52-.283.855-.375.336-.092.734-.155,1.195-.19l1.025-.082v-.293c0-1.047-.488-1.57-1.465-1.57-.23,0-.522.05-.876.149s-.657.218-.911.354l-.24-.656c.832-.426,1.605-.639,2.32-.639,1.391,0,2.086.736,2.086,2.209v2.625c0,.531.051,1.004.152,1.418ZM442.165,247.485v-1.107c-.824.074-1.39.144-1.696.208s-.572.185-.797.36-.337.414-.337.715c0,.273.096.494.287.662s.436.252.732.252c.324,0,.646-.097.967-.29s.602-.46.844-.8Z"/>
              <path d="M450.339,249.02c-.613.281-1.217.422-1.811.422-1.09,0-1.635-.576-1.635-1.729v-3.732h-1.172v-.791h1.172v-1.67h.891v1.67h2.074v.791h-2.074v3.492c0,.371.082.659.246.864s.387.308.668.308c.5,0,.994-.111,1.482-.334l.158.709Z"/>
              <path d="M457.47,249.296h-.914v-.902c-.656.699-1.348,1.049-2.074,1.049-1.145,0-1.717-.693-1.717-2.08v-4.172h.914v3.908c0,.52.082.907.246,1.163s.441.384.832.384c.559,0,1.158-.348,1.799-1.043v-4.412h.914v6.105Z"/>
              <path d="M464.776,243.354l-.369.879c-.402-.176-.75-.264-1.043-.264-.27,0-.533.077-.791.231s-.495.375-.712.662-.325.448-.325.483v3.949h-.908v-6.105h.908v1.236c.488-.922,1.121-1.383,1.898-1.383.461,0,.908.104,1.342.311Z"/>
              <path d="M472.036,249.296h-.908c-.074-.246-.111-.574-.111-.984-.52.762-1.227,1.143-2.121,1.143-.453,0-.853-.161-1.198-.483s-.519-.737-.519-1.245c0-.301.061-.566.182-.797s.299-.425.533-.583c.234-.158.52-.283.855-.375.336-.092.734-.155,1.195-.19l1.025-.082v-.293c0-1.047-.488-1.57-1.465-1.57-.23,0-.522.05-.876.149s-.657.218-.911.354l-.24-.656c.832-.426,1.605-.639,2.32-.639,1.391,0,2.086.736,2.086,2.209v2.625c0,.531.051,1.004.152,1.418ZM470.97,247.485v-1.107c-.824.074-1.39.144-1.696.208s-.572.185-.797.36-.337.414-.337.715c0,.273.096.494.287.662s.436.252.732.252c.324,0,.646-.097.967-.29s.602-.46.844-.8Z"/>
              <path d="M478.64,249.296h-2.496v-7.477h-1.594v-.791h2.508v7.477h1.582v.791Z"/>
              <path d="M493.405,241.866h-3.422v2.701h3.117v.838h-3.117v3.891h-.961v-8.268h4.383v.838Z"/>
              <path d="M498.321,243.044c.84,0,1.508.293,2.004.879s.744,1.357.744,2.314c0,.965-.248,1.742-.744,2.332s-1.164.885-2.004.885-1.513-.294-2.007-.882-.741-1.366-.741-2.335c0-.961.248-1.733.744-2.317s1.164-.876,2.004-.876ZM498.321,248.657c.555,0,.992-.234,1.312-.703s.48-1.037.48-1.705c0-.703-.158-1.281-.475-1.734s-.756-.68-1.318-.68c-.566,0-1.006.224-1.318.671s-.469,1.028-.469,1.743c0,.68.158,1.251.475,1.714s.754.694,1.312.694Z"/>
              <path d="M505.522,243.044c.84,0,1.508.293,2.004.879s.744,1.357.744,2.314c0,.965-.248,1.742-.744,2.332s-1.164.885-2.004.885-1.513-.294-2.007-.882-.741-1.366-.741-2.335c0-.961.248-1.733.744-2.317s1.164-.876,2.004-.876ZM505.522,248.657c.555,0,.992-.234,1.312-.703s.48-1.037.48-1.705c0-.703-.158-1.281-.475-1.734s-.756-.68-1.318-.68c-.566,0-1.006.224-1.318.671s-.469,1.028-.469,1.743c0,.68.158,1.251.475,1.714s.754.694,1.312.694Z"/>
              <path d="M515.067,249.296h-.914v-.879c-.188.301-.456.549-.806.744s-.718.293-1.104.293c-.699,0-1.252-.312-1.658-.935s-.609-1.413-.609-2.37c0-.895.212-1.636.636-2.224.424-.588.985-.882,1.685-.882.77,0,1.389.312,1.857.938v-2.953h.914v8.268ZM514.153,247.427v-2.537c-.438-.703-.965-1.055-1.582-1.055-.504,0-.902.224-1.195.671s-.439,1.013-.439,1.696c0,.703.138,1.284.413,1.743s.653.688,1.134.688c.23,0,.463-.062.697-.188s.455-.312.662-.562.311-.402.311-.457Z"/>
            </g>
          </g>
          <path d="M343.349,242.829c.328-1.031.829-1.813,1.503-2.347s1.491-.8,2.452-.8c1.137,0,2.051.347,2.742,1.042.691.693,1.037,1.612,1.037,2.755,0,1.002-.24,1.808-.721,2.417s-1.403,1.201-2.769,1.775l-.176.079c-2.238.943-3.595,1.998-4.069,3.164-.486-1.172-1.84-2.227-4.061-3.164-.082-.035-.146-.062-.193-.079-1.371-.574-2.295-1.163-2.772-1.767s-.717-1.412-.717-2.426c0-1.143.348-2.062,1.042-2.755.694-.695,1.606-1.042,2.737-1.042.967,0,1.786.267,2.457.8s1.173,1.315,1.507,2.347Z"/>
        </g>
        <g id="good-7" data-name="good">
          <g>
            <rect x="106.699" y="131.055" width="83.851" height="20.574" fill="#fff"/>
            <g>
              <path d="M112.988,136.54h1.629c1.082,0,1.949.368,2.602,1.104s.979,1.747.979,3.032c0,1.312-.331,2.329-.993,3.05s-1.511,1.081-2.546,1.081h-1.67v-8.268ZM113.949,143.97h.68c.785,0,1.406-.291,1.863-.873s.686-1.389.686-2.42c0-1.023-.229-1.829-.688-2.417s-1.079-.882-1.86-.882h-.68v6.592Z"/>
              <path d="M124.917,144.808h-.914v-.902c-.656.699-1.348,1.049-2.074,1.049-1.145,0-1.717-.693-1.717-2.08v-4.172h.914v3.908c0,.52.082.907.246,1.163s.441.384.832.384c.559,0,1.158-.348,1.799-1.043v-4.412h.914v6.105Z"/>
              <path d="M132.283,144.808h-.908c-.074-.246-.111-.574-.111-.984-.52.762-1.227,1.143-2.121,1.143-.453,0-.853-.161-1.198-.483s-.519-.737-.519-1.245c0-.301.061-.566.182-.797s.299-.425.533-.583.52-.283.855-.375.734-.155,1.195-.19l1.025-.082v-.293c0-1.047-.488-1.57-1.465-1.57-.23,0-.522.05-.876.149s-.657.218-.911.354l-.24-.656c.832-.426,1.605-.639,2.32-.639,1.391,0,2.086.736,2.086,2.209v2.625c0,.531.051,1.004.152,1.418ZM131.216,142.998v-1.107c-.824.074-1.39.144-1.696.208s-.572.185-.797.36-.337.414-.337.715c0,.273.096.494.287.662s.436.252.732.252c.324,0,.646-.097.967-.29s.602-.46.844-.8Z"/>
              <path d="M139.332,144.808h-.914v-3.914c0-.543-.087-.937-.261-1.181s-.446-.366-.817-.366c-.559,0-1.158.348-1.799,1.043v4.418h-.914v-6.105h.914v.896c.656-.695,1.348-1.043,2.074-1.043,1.145,0,1.717.691,1.717,2.074v4.178Z"/>
              <path d="M146.714,141.785h-4.189c0,.691.2,1.262.601,1.711s.892.674,1.474.674c.555,0,1.127-.1,1.717-.299l.158.732c-.539.242-1.168.363-1.887.363-.906,0-1.637-.291-2.191-.873s-.832-1.367-.832-2.355c0-.969.249-1.741.747-2.317s1.142-.864,1.931-.864c.703,0,1.291.268,1.764.803s.709,1.248.709,2.139v.287ZM145.718,141.04c0-.477-.148-.878-.445-1.204s-.629-.489-.996-.489c-.473,0-.864.156-1.175.469s-.483.721-.519,1.225h3.135Z"/>
              <path d="M161.849,144.808h-1.201l-2.426-3.756h-1.066v3.756h-.961v-8.268h2.338c.785,0,1.405.19,1.86.571s.683.911.683,1.591c0,.504-.166.952-.498,1.345s-.789.659-1.371.8l2.643,3.961ZM157.156,140.214h1.213c.508,0,.92-.138,1.236-.413s.475-.622.475-1.04c0-.922-.562-1.383-1.688-1.383h-1.236v2.836Z"/>
              <path d="M168.318,141.785h-4.189c0,.691.2,1.262.601,1.711s.892.674,1.474.674c.555,0,1.127-.1,1.717-.299l.158.732c-.539.242-1.168.363-1.887.363-.906,0-1.637-.291-2.191-.873s-.832-1.367-.832-2.355c0-.969.249-1.741.747-2.317s1.142-.864,1.931-.864c.703,0,1.291.268,1.764.803s.709,1.248.709,2.139v.287ZM167.322,141.04c0-.477-.148-.878-.445-1.204s-.629-.489-.996-.489c-.473,0-.864.156-1.175.469s-.483.721-.519,1.225h3.135Z"/>
              <path d="M175.519,141.785h-4.189c0,.691.2,1.262.601,1.711s.892.674,1.474.674c.555,0,1.127-.1,1.717-.299l.158.732c-.539.242-1.168.363-1.887.363-.906,0-1.637-.291-2.191-.873s-.832-1.367-.832-2.355c0-.969.249-1.741.747-2.317s1.142-.864,1.931-.864c.703,0,1.291.268,1.764.803s.709,1.248.709,2.139v.287ZM174.523,141.04c0-.477-.148-.878-.445-1.204s-.629-.489-.996-.489c-.473,0-.864.156-1.175.469s-.483.721-.519,1.225h3.135Z"/>
              <path d="M182.515,144.808h-.914v-.879c-.188.301-.456.549-.806.744s-.718.293-1.104.293c-.699,0-1.252-.312-1.658-.935s-.609-1.413-.609-2.37c0-.895.212-1.636.636-2.224s.985-.882,1.685-.882c.77,0,1.389.312,1.857.938v-2.953h.914v8.268ZM181.601,142.939v-2.537c-.438-.703-.965-1.055-1.582-1.055-.504,0-.902.224-1.195.671s-.439,1.013-.439,1.696c0,.703.138,1.284.413,1.743s.653.688,1.134.688c.23,0,.463-.062.697-.188s.455-.312.662-.562.311-.402.311-.457Z"/>
            </g>
          </g>
          <path d="M202.441,139.22c.328-1.031.829-1.813,1.503-2.347s1.491-.8,2.452-.8c1.137,0,2.051.347,2.742,1.042.691.693,1.037,1.612,1.037,2.755,0,1.002-.24,1.808-.721,2.417s-1.403,1.201-2.769,1.775l-.176.079c-2.238.943-3.595,1.998-4.069,3.164-.486-1.172-1.84-2.227-4.061-3.164-.082-.035-.146-.062-.193-.079-1.371-.574-2.295-1.163-2.773-1.767s-.716-1.412-.716-2.426c0-1.143.347-2.062,1.042-2.755.694-.695,1.607-1.042,2.738-1.042.967,0,1.786.267,2.457.8s1.173,1.315,1.507,2.347Z"/>
        </g>
      </g>
    </g>
  </g>
<style>
#g-peanut-butter-map-Artboard_1-interaction1-img rect, #g-peanut-butter-map-Artboard_1-interaction1-img circle, #g-peanut-butter-map-Artboard_1-interaction1-img path, #g-peanut-butter-map-Artboard_1-interaction1-img line, #g-peanut-butter-map-Artboard_1-interaction1-img polyline, #g-peanut-butter-map-Artboard_1-interaction1-img polygon { vector-effect: non-scaling-stroke; }
</style>
</svg>
